<?xml version="1.0" encoding="UTF-8"?>
<svg id="Layer_1" xmlns="http://www.w3.org/2000/svg" width="3in" height=".6in" version="1.1" viewBox="0 0 213.7 41.2">
  <!-- Generator: Adobe Illustrator 30.3.0, SVG Export Plug-In . SVG Version: 2.1.3 Build 182)  -->
  <defs>
    <style>
      .st0 {
        fill: #f2f5f0;
      }
    </style>
  </defs>
  <path class="st0" d="M23.4,24.7c0,.1,0,.3,0,.4,0,.1,0,.2,0,.4,0,.1,0,.3,0,.4,0,.1,0,.3,0,.4,0,.1,0,.2,0,.3,0,0,0,.2-.1.3,0,0-.1.2-.1.2,0,0,0,.1,0,.2,0,0,0,0,0,.1,0,0,0,0,0,0,0,0,0,0,0,.1,0,0,0,.1,0,.2v.2s0,0,0,.2c0,0,0,.2,0,.3,0,0,0,.2,0,.3,0,0,0,.1,0,.1,0,0,0,.2,0,.3s0,.2,0,.3c0,0,0,.1-.1.2s-.2,0-.3,0c-.2,0-.4,0-.5,0s-.3,0-.5,0c-.3,0-.6,0-.9.1-.3,0-.6.1-.9.1-.4,0-.8,0-1.2,0-.4,0-.8,0-1.2,0,0,0-.2,0-.3,0,0,0-.2,0-.3,0-.1,0-.2,0-.4.1-.1,0-.3.1-.5.1-.1,0-.3,0-.4,0-.1,0-.2,0-.4-.1-.1,0-.2,0-.4-.1-.1,0-.3,0-.4,0-.3,0-.6,0-.9.1-.3,0-.6.1-.9.1-.2,0-.3-.1-.4-.3,0-.1-.1-.3-.1-.5,0-.2,0-.4,0-.6,0-.2,0-.4,0-.5,0-.1,0-.2,0-.3,0,0,0,0,0-.1,0,0,0,0,0,0s0,0,0-.1c0-.1-.2-.3-.2-.5,0,0,.1,0,.2,0,0,0,0-.1,0-.2,0-.1,0-.3.1-.4s.2-.4.3-.6.3-.4.5-.6.3-.4.5-.5c.2-.2.3-.3.5-.4s.3-.2.5-.2h0c0,0,0-.1,0-.2,0,0,0-.1,0-.2,0,0-.1,0-.2,0,0,0-.1,0-.2,0,0,0,0,0,0-.1,0,0,0-.2,0-.3,0-.1.1-.2.2-.3,0-.1.2-.2.3-.3.1,0,.2-.2.3-.2h0c0-.3,0-.4.1-.6,0-.2.2-.4.3-.5.1-.2.2-.3.4-.5.1-.2.3-.3.4-.4,0,0,.1-.2.2-.3s0-.2.1-.4c0-.1,0-.2.1-.3s.1-.2.2-.2c.1,0,.2-.1.2-.1s0,0,0,0c0,0,0,0,0-.1,0,0,0-.1,0-.3,0-.1,0-.2.1-.2,0,0,0,0,.1,0,0,0,0,0,0,0,0,0,0-.2,0-.4,0-.1,0-.2,0-.3s0-.1,0-.2c0,0,0-.1.1-.2,0,0,.1-.1.2-.2,0,0,.1-.2.2-.3,0-.1.1-.2.2-.3s.1-.2.1-.4c0-.1,0-.2,0-.3,0-.2,0-.3-.2-.4s-.3-.1-.4-.1c-.2,0-.3,0-.5,0-.2,0-.3,0-.4-.2,0,0-.2,0-.3,0,0,0-.2.1-.2.2,0,0-.1.1-.2.2s-.1,0-.2,0-.2,0-.3,0c-.1,0-.2,0-.4,0-.1,0-.3,0-.4,0-.1,0-.3,0-.4,0-.1,0-.3,0-.4,0s-.2,0-.4,0c-.2,0-.3,0-.4.2,0,0-.2.2-.2.3s0,.3,0,.4,0,.3,0,.4c0,.2,0,.4,0,.5,0,.2,0,.4,0,.5,0,0,0,.2,0,.4,0,.2,0,.3,0,.5,0,.2,0,.3-.1.5s-.2.2-.3.2c0,0-.1,0-.2,0,0,0,0,0-.1,0-.2-.1-.3-.2-.4-.4,0-.1,0-.3,0-.5,0,0,0-.1,0-.2s0-.1,0-.2c0,0,0-.1,0-.3s0-.3,0-.5c0-.2,0-.3,0-.5s0-.2,0-.2c0,0,0,0,0,0s0,0,0,0,0,0,0,0,0,0,0-.1c0,0,0-.1,0-.2,0,0,0,0,0,0,0-.2,0-.3,0-.5,0-.2,0-.3,0-.5,0-.1,0-.2,0-.3,0,0,.1-.2.2-.2,0,0,.1-.1.2-.2s.1-.2.2-.3c0,0,0,0,.1,0,0,0,.2,0,.3,0s.2,0,.3,0c0,0,0,0,.1,0,0,0,.1,0,.2-.2s.2-.1.3-.2c.1,0,.2,0,.4,0,.3,0,.6,0,.9,0,.3,0,.6.1.9,0,.2,0,.4,0,.6-.2.2-.1.4-.2.5-.3s.4,0,.6,0c.2,0,.4,0,.6,0,.2,0,.4,0,.6,0,.3,0,.6,0,.9-.1s.6,0,.9-.1c.1,0,.2,0,.4,0,.1,0,.2,0,.4,0,0,0,.1,0,.2,0s0,0,0,0c0,0,0,0,0,.1,0,0,0,0,0,.1,0,0,.2,0,.2,0,0,0,.2,0,.3.1,0,0,.2.2.2.3,0,.2.1.4.1.7,0,0,0,.2-.1.4,0,.1-.1.3-.2.4,0,.1,0,.3-.1.4,0,.1,0,.3-.1.4,0,0,0,.1-.1.2,0,0-.1.2-.2.2,0,0-.1.2-.1.2,0,0,0,.2,0,.3,0,0,0,0,0,0,0,0,0,0,0,0-.2,0-.3,0-.4.2s-.2.2-.2.4c0,.2-.1.3-.2.4,0,.1-.1.3-.2.3-.1.1-.2.2-.3.3-.1,0-.2.2-.4.2,0,.1,0,.3-.2.4,0,.1-.2.3-.2.4,0,.1-.2.3-.2.4,0,.1-.1.3-.1.4,0,0,0,.2,0,.2,0,0,0,0-.1,0,0,0,0,0,0,0,0,0,0,.1,0,.3,0,0,0,.1,0,.1,0,0,0,0-.1,0,0,0-.1,0-.2,0,0,0,0,0-.1,0,0,0,0,0,0,.1,0,0,0,0,0,.1,0,.1,0,.2,0,.3,0,.1-.1.2-.2.3s-.2.2-.3.2c-.1,0-.2.1-.3.2h0c0,.3,0,.4,0,.4,0,0-.1.2-.2.3,0,0-.1.2-.2.3,0,.1,0,.2,0,.4,0,0,0,.1,0,.2s0,.1-.1.1c0,0-.1,0-.2.1,0,0-.1,0-.1.1-.1,0-.2.2-.2.2s0,.1,0,.2c0,0,0,.1,0,.2,0,0,0,.2,0,.3,0,0-.1.2-.2.3,0,0-.1.2-.2.3,0,.1-.1.2-.2.3,0,.1,0,.2,0,.3,0,0,0,.2,0,.2s.1.1.2.1.1,0,.2,0c0,0,.2,0,.2,0,.1,0,.3,0,.4,0,.1,0,.3,0,.4,0,.4,0,.9,0,1.3,0,.4,0,.9,0,1.3,0,.2,0,.4,0,.6,0,.3,0,.5-.1.7-.2.2,0,.4-.2.6-.4.2-.1.2-.3.2-.5,0,0,0,0,0-.1s0,0,0-.1c0-.1,0-.3,0-.4,0-.2,0-.3,0-.5s0-.2,0-.3c0,0,0-.1,0,0,0,0,0,0,0-.1,0,0,0,0,0-.1,0,0,0-.2,0-.3,0-.1,0-.2,0-.3,0,0,0-.1,0-.2,0,0,0-.1,0-.2,0,0,0-.1,0-.2,0,0,0,0,.1-.1,0,0,0,0,.1,0,0,0,0,0,0-.1,0,0,0-.1,0-.2,0,0,0-.1,0-.2,0,0,0-.2.1-.2,0,0,.2,0,.2,0,.2,0,.3,0,.3,0s.1.1.1.2c0,0,0,.1,0,.2,0,0,0,.2.1.2,0,0,.1,0,.2.1,0,0,.1,0,.2,0,0,0,.1,0,.2,0,0,0,.1,0,.2,0,0,0,0,.2,0,.3,0,.2,0,.3.1.5s.1.3.1.5ZM12.6,17.3c0,0,0-.1,0-.1s-.1,0-.2,0c0,0,0,0,0,.1,0,0,0,0,0,.1s0,0,0,.1c0,0,0,0,0,0,0,0,0,0,.1,0,0,0,0-.1,0-.2ZM22.1,27.6s0,0,0-.1c0,0,0,0-.1,0,0,0-.1,0-.1.1s0,.2,0,.2c0,0,.1,0,.2,0,0,0,.1,0,.1-.1Z"/>
  <path class="st0" d="M38.7,28.7c0,0,0,.2-.2.2s-.1.1-.2.2c0,0-.2,0-.2,0,0,0-.1,0-.2,0s-.1,0-.2,0c0,0-.1,0-.1,0,0,0,0,0,0,.1s0,0,0,.1c0,0-.1,0-.2,0,0,0-.1,0-.2,0,0,0-.1,0-.2,0-.1,0-.3,0-.4.1-.1,0-.3,0-.4.1-.1,0-.3,0-.6,0-.3,0-.5,0-.8-.2s-.5-.2-.7-.3c-.2-.1-.3-.3-.3-.4,0-.1,0-.3.2-.4.1-.1.3-.3.5-.5.2-.2.3-.4.5-.6.1-.2.2-.5.2-.7,0-.2,0-.3-.1-.5s-.2-.3-.3-.4c-.1-.1-.2-.3-.4-.4-.1-.1-.3-.2-.4-.3,0,0,0,0-.2,0-.2,0-.4,0-.6,0-.2,0-.4,0-.6,0-.1,0-.2,0-.3,0-.1,0-.2-.1-.2-.2-.2.1-.4.2-.6.3-.2,0-.4.2-.6.3-.1,0-.2,0-.3.1,0,0,0,0-.1,0,0,0,0,0,0,.1s0,.1,0,.3c0,0,0,.1,0,.2,0,0,0,.1,0,.2,0,0,0,.2,0,.2,0,0,0,.1-.1.2,0,0,0,.1-.1.2,0,0,0,.1,0,.2,0,0,0,.1,0,.2h0c0,.2,0,.3.1.3,0,0,.1.1.2.1s.2,0,.3,0c.1,0,.2,0,.3.1,0,0,.2.1.2.2,0,.1.1.2.2.3,0,.1.1.2.2.4s0,.2,0,.3h0c0,0-.1,0-.1,0-.3,0-.6,0-.9,0-.3,0-.6,0-.9.1-.3,0-.6,0-.9.1-.3,0-.6,0-.9,0-.1,0-.3,0-.5,0s-.4,0-.6,0c-.2,0-.4,0-.5-.2-.2,0-.2-.2-.2-.3,0-.2,0-.3,0-.4s.2-.2.3-.3c.1,0,.2-.1.4-.2.1,0,.3-.1.4-.2.1,0,.3-.1.4-.2s.2-.1.3-.2c0,0,.2-.2.2-.4s0-.4.1-.6c0-.2,0-.4,0-.6,0-.2,0-.4,0-.5,0,0,0,0,0-.1s0-.1,0-.2c0,0,0-.1,0-.2s0,0,0-.1c0-.1.1-.2.2-.2,0,0,0,0,0,0s0,0,0-.1,0-.2,0-.4c0,0,0-.2,0-.2,0,0,0,0,.1-.1,0,0,0,0,.1-.1s0,0,0-.1c0-.1,0-.2-.1-.3,0,0,0-.2-.1-.3,0,0,0-.1,0-.2,0,0,0,0,.1-.1s0,0,.1-.1c0,0,0,0,0-.2,0,0,0-.2,0-.2,0,0,0-.2,0-.3,0,0,0-.1,0-.1s0,0,.1,0c0,0,0,0,.1,0,0,0,0,0,0,0,0,0,0,0-.1,0,0,0-.1,0-.1.2,0,0-.1,0-.1-.1,0,0,0-.1,0-.2,0,0,0-.1,0-.2,0,0,0-.1.1-.2,0,0,0-.2.1-.3,0-.1,0-.2,0-.4,0-.2,0-.3,0-.5,0-.1,0-.3,0-.5,0,0,0-.2,0-.2,0,0,0-.2.1-.2,0,0,0-.1.1-.2,0,0,0-.2.1-.2,0-.1,0-.3,0-.5,0-.2,0-.3,0-.5,0-.2,0-.3,0-.5s0-.3.1-.4c0-.1.1-.2.1-.3,0,0,0-.2,0-.2,0,0,0-.2,0-.2,0,0,0-.2,0-.4,0-.2,0-.4.2-.6,0-.2.1-.4.1-.6,0-.2,0-.3,0-.4,0-.1,0-.2,0-.3s0-.2.2-.2.2-.1.4-.2c.2,0,.4-.1.6-.2.2,0,.4,0,.6,0,.2,0,.5,0,.7,0,0,.1,0,.2.2.3,0,.1.2.2.3.3s.2.2.3.3c0,.1.1.2.2.3,0,.2,0,.3,0,.5s0,.3.2.5c0,0,0,.2,0,.3,0,.2,0,.3,0,.5,0,.2,0,.3,0,.5,0,0,0,.3.1.5,0,.2.2.5.2.7,0,.3.2.5.3.8,0,.2.1.4.2.6,0,.3.1.6.1.9,0,.3,0,.6.2.9.1.3.2.6.3.9,0,.3.1.6.2.9,0,.3,0,.6.1.9,0,.3.1.6.2.8,0,.3.2.6.2.8,0,.3.1.6.1.9,0,.1,0,.2,0,.4,0,.1,0,.2-.1.3.2.2.4.4.6.6.2.2.4.4.6.5,0,0,.2,0,.4,0,.2,0,.3,0,.5,0,.2,0,.3,0,.4.1.1,0,.2.2.2.3,0,0,0,.2,0,.2ZM33.7,22.5c0,0,0-.2,0-.3,0-.1-.1-.2-.2-.4,0-.1-.1-.3-.2-.4s0-.3,0-.5c0-.2,0-.4-.1-.6,0-.2-.1-.4-.1-.6,0-.2,0-.4,0-.6,0-.2,0-.4-.1-.6s-.2-.3-.3-.4c-.1-.1-.3-.2-.6-.2,0,0,0,.1,0,.1,0,0,0,0-.1,0,0,0-.1,0-.2,0,0,0,0,0-.1,0,0,0,0,0,0,.1,0,.1,0,.3,0,.4,0,.1-.1.2-.1.4,0,.1,0,.3,0,.4s0,.3,0,.4c0,.1,0,.2,0,.4,0,.1,0,.2,0,.3,0,.2,0,.3,0,.5s0,.2,0,.4c0,.1,0,.2,0,.3,0,0,0,.2,0,.3,0,.2,0,.4,0,.6s0,.3.1.4.1.2.2.2c.1,0,.2,0,.4,0,.1,0,.3,0,.5,0s.5,0,.7-.2c.2,0,.4-.2.6-.3.2-.1.2-.3.2-.4Z"/>
  <path class="st0" d="M55.3,28c0,.2-.1.3-.2.4-.1,0-.2.2-.4.2-.1,0-.3,0-.5.1-.2,0-.3,0-.5,0-.2,0-.4,0-.7,0-.2,0-.4,0-.6,0-.1,0-.3,0-.4,0-.2,0-.3,0-.5,0-.2,0-.3,0-.4-.2-.1,0-.2-.2-.2-.4,0-.2,0-.3.1-.4,0,0,.2-.2.3-.2s.2,0,.4,0c.1,0,.3,0,.4,0s.2-.1.3-.2.1-.3.1-.5c0-.1,0-.3,0-.4s0-.3,0-.4,0-.3,0-.4c0-.1,0-.3,0-.4,0,0,0-.2,0-.3,0-.1,0-.2,0-.4,0-.2,0-.5,0-.7,0-.2-.1-.4-.2-.6,0-.1,0-.3,0-.4,0-.1,0-.2,0-.3,0-.1,0-.2,0-.3,0-.2,0-.3,0-.5,0-.1,0-.3,0-.5,0-.2,0-.4,0-.6,0-.2,0-.4,0-.6,0-.1,0-.3,0-.5s0-.4-.1-.5c0-.2-.1-.4-.2-.5,0-.2-.1-.3-.2-.5-.2,0-.3.2-.4.3,0,.1-.2.2-.2.4,0,.1,0,.3-.1.4s0,.3,0,.4c0,.3-.1.6-.2.9-.1.3-.2.6-.2.9,0,.4,0,.7,0,1.1,0,.4,0,.7,0,1.1,0,.4,0,.7-.1,1.1s-.2.7-.3,1.1c0,.1,0,.3-.1.4,0,.1,0,.2,0,.4,0,.1,0,.2,0,.3,0,.1,0,.2,0,.3,0,.2,0,.4,0,.5,0,.1,0,.2-.2.3s-.1.2-.2.2c0,0-.1.2-.1.3,0,.1,0,.2-.2.3-.1,0-.2.1-.4.2-.1,0-.3,0-.4.1-.1,0-.3,0-.3.1,0-.2-.2-.3-.3-.5-.1-.1-.2-.3-.3-.5-.1-.2-.2-.4-.2-.6s0-.4-.2-.6c0,0,0-.2-.1-.2,0,0,0-.1-.1-.2,0,0,0-.1,0-.2s0-.2,0-.3c0,0,0-.2,0-.2,0,0,0-.2,0-.2,0-.2,0-.4-.1-.6-.1-.4-.2-.8-.4-1.1s-.2-.8-.2-1.2c0-.4,0-.8-.1-1.1,0-.4-.1-.7-.3-1.1,0-.2-.2-.3-.3-.5,0-.2-.2-.3-.2-.5,0,0,0,0,0-.2,0,0,0-.2,0-.3,0,0,0-.2,0-.2,0,0,0-.1,0-.1,0,0,0,0,0,.1,0,.1,0,.2-.1.3,0,0,0,0,0,.1,0,0,0,0,0,.1,0,0,0,.1-.2.2,0,0,0,.2,0,.3,0,.2,0,.3.1.5,0,.2.1.3.1.5,0,0,0,.2,0,.3,0,0,0,.2,0,.3,0,.2,0,.4.1.7s.1.4.1.7c0,.2,0,.3,0,.5,0,.2,0,.3,0,.5,0,.2,0,.4,0,.5,0,.2,0,.4,0,.5,0,.2,0,.3,0,.4s0,.3,0,.4c0,.1,0,.3,0,.4,0,.1,0,.3,0,.4,0,.3,0,.5.2.7.1.1.3.2.4.3.2,0,.4.1.5.2s.3.2.5.3c0,.1-.1.2-.1.4,0,.1,0,.3-.1.4,0,.1-.1.2-.2.2s-.1,0-.2,0c0,0-.1,0-.2,0,0,0-.2,0-.2,0,0,0-.1,0-.2.1s0,0,0,.1c0,0,0,0-.1,0,0,0-.1,0-.3,0-.1,0-.3,0-.4,0-.1,0-.3,0-.4,0-.1,0-.3,0-.4,0-.1,0-.3,0-.4,0-.2,0-.3,0-.5,0-.2,0-.3-.1-.4-.2s-.2-.2-.3-.4c0-.1-.1-.3-.1-.5,0-.3,0-.5.1-.6.1-.1.2-.3.4-.3.2,0,.3-.2.5-.2.2,0,.4-.1.5-.2,0-.1,0-.3,0-.4,0-.1,0-.3,0-.4,0-.2,0-.4,0-.7,0-.2,0-.4,0-.7,0-.1,0-.3,0-.4,0-.1,0-.3,0-.4,0,0,0-.1,0-.2-.1-.3-.2-.5-.2-.8,0-.3,0-.5,0-.8,0-.1,0-.3,0-.4,0-.1,0-.2.1-.4,0-.1,0-.2.1-.4,0-.1,0-.2,0-.4,0-.2,0-.5,0-.7,0-.2,0-.5,0-.7,0-.2,0-.3,0-.4,0-.1,0-.3,0-.4s0-.3-.1-.4,0-.3-.1-.4c0-.1,0-.2,0-.3s0-.2,0-.3c0,0,0-.1,0-.2,0,0,0-.2-.1-.3,0-.1,0-.2,0-.3,0-.1,0-.2,0-.3,0-.2,0-.4-.1-.5,0-.1-.2-.2-.3-.3-.1,0-.2-.1-.4-.1-.1,0-.3,0-.4,0-.1,0-.2,0-.3-.1,0,0-.1-.1-.1-.2,0,0,0-.2.2-.3.1-.1.2-.2.4-.3.2-.1.3-.2.5-.3.2-.1.4-.2.5-.3.2,0,.3-.1.4-.2.1,0,.2,0,.2-.1,0,0,0,0,.1.1,0,0,.1,0,.2,0,0,0,.1,0,.2,0,0,0,.1,0,.2,0,0,0,.1,0,.2,0,0,0,0,0,.1.1,0,0,0,0,.1.1s.2,0,.3,0c.3,0,.5.2.7.3s.2.4.2.7c0,0,0,.2,0,.2s0,.2,0,.2l.3.8c0,0,0,.2,0,.3,0,0,0,.2,0,.3,0,0,.2.2.2.3,0,.1,0,.3.1.4,0,.2,0,.3,0,.5,0,.2,0,.3,0,.4,0,.2,0,.3.1.5,0,.2,0,.3,0,.5,0,.1,0,.2,0,.3,0,.1,0,.2,0,.3,0,.2,0,.4,0,.6,0,.2.1.4.2.6,0,.2.1.4.2.6,0,.2.1.4.1.6,0,0,0,.2,0,.4,0,.2,0,.4,0,.6,0,.2,0,.5.1.7,0,.2.1.5.2.7,0,.2.2.4.3.5,0,.1.2.2.3.2.1,0,.2,0,.3-.1,0,0,0-.2,0-.3,0-.1,0-.2,0-.3,0-.1,0-.2.2-.2,0,0,.1-.1.2-.3s0-.3.1-.5c0-.2,0-.3,0-.5,0-.2,0-.3,0-.4,0-.4,0-.8,0-1.2s0-.8,0-1.3,0-.8,0-1.3c0-.4.1-.8.2-1.2,0,0,0-.1,0-.2,0,0,0-.1.1-.2,0,0,0-.1,0-.2,0,0,0-.1,0-.2,0,0,0,0,0-.1s0,0,0,0c0,0,0,0,0,0,0,0,0,0,0,0,0,0,0,0,0,0s0,0,0,0c.1-.1.2-.3.2-.5s0-.5,0-.7,0-.5,0-.7,0-.4.1-.6c0,0,.2,0,.3,0,.1,0,.2,0,.3,0,0,0,.2,0,.3-.1,0,0,.2,0,.3-.1.1,0,.2,0,.3,0s0,0,.1,0,0,0,.1,0c.2,0,.3,0,.4-.1.1,0,.2-.1.4-.1,0,0,0,0,.1,0s0,0,0,0c0,0,0,0,0,0,0,0,0,0,0,0,.1,0,.3,0,.4,0,.1,0,.3,0,.4,0,0,0,.2,0,.2,0,0,0,.1,0,.2.1,0,0,.1.1.3.2.1,0,.2,0,.3,0,.1,0,.2,0,.3.1s.1.1.1.3c0,.3,0,.5-.2.6-.1.1-.3.2-.4.2s-.3,0-.5.1c-.2,0-.3.1-.3.2,0,.1-.1.3-.1.4s0,.3-.1.4c0,0,0,.1,0,.2,0,0,0,.1,0,.2,0,.1,0,.2,0,.4s0,.2.1.3c0,.1,0,.2.1.3,0,.1,0,.2,0,.3,0,.4,0,.8.1,1.2,0,.2,0,.5,0,.7,0,.2,0,.5,0,.7s0,.5,0,.7c0,.2,0,.5,0,.7,0,.2,0,.3-.2.5v.3c0,.2,0,.4,0,.7,0,.2,0,.4.1.7s0,.4.1.7c0,.2,0,.4,0,.7,0,.3,0,.6-.1.9,0,.3-.1.6-.1.9,0,.2,0,.4.2.5s.3.2.5.2c.1,0,.2,0,.3,0,.1,0,.2,0,.3,0s.2,0,.3,0c.1,0,.2,0,.3.2,0,0,0,0,0,.1,0,0,0,.1,0,.2s0,.1,0,.1c0,0,0,0,0,0ZM44.4,17c0-.1,0-.3,0-.4,0-.1-.1-.3-.3-.3,0,0,0,.1,0,.2,0,0,0,.1,0,.2,0,.1,0,.2,0,.4,0,.1.1.2.3.2,0,0,0,0,0,0,0,0,0,0,0-.1ZM48.6,25.9s0,0,0,0c0,0,0,0,0,0-.1,0-.2,0-.3,0,0,0-.1.2-.1.3h0c0,.1,0,.1,0,.1,0,0,0,0,0,0,.1,0,.2,0,.3,0,0,0,.1-.2.1-.3h0ZM53.6,27.4s0,0,0-.1-.1,0-.1,0c0,0,0,0,0,0,0,0,0,0-.1,0,0,0,0,0-.1,0s0,0,0,0c0,0,0,0,.1,0,0,0,.1,0,.2,0,0,0,.1,0,.2,0,0,0,.1,0,.1-.1Z"/>
  <path class="st0" d="M79.3,21.1c0,.2,0,.5,0,.8,0,.3,0,.6-.2,1s-.2.7-.3,1c0,.4-.2.7-.3,1-.1.3-.2.6-.3.9-.1.3-.2.5-.3.7,0,0-.1.2-.2.2,0,0-.2.2-.3.3,0,0-.2.2-.3.3,0,0-.1.2-.1.2,0,0-.2,0-.3,0s-.3,0-.4.1c-.1,0-.3,0-.4.1-.1,0-.2.1-.2.1,0,.2-.1.3-.1.3,0,0,0,0,0,0,0,0,0,0-.1,0,0,0-.2,0-.4,0,0,0-.2,0-.3,0-.1,0-.2,0-.3,0-.1,0-.2,0-.3,0,0,0-.2,0-.2,0-.2,0-.3,0-.5,0-.2,0-.3,0-.5,0-.1,0-.2,0-.3,0-.3.1-.5.2-.8.2-.3,0-.5,0-.8,0l-1.6-.2c-.1,0-.2,0-.4,0-.1,0-.2,0-.4,0-.2,0-.3,0-.5,0-.1,0-.3,0-.5,0,0-.1,0-.2-.1-.3,0-.1-.1-.2-.1-.3,0-.1,0-.2-.1-.3,0-.1,0-.2,0-.3,0-.2,0-.3.1-.4,0,0,.2-.2.4-.2s.3,0,.5,0c.2,0,.3,0,.5-.1.2,0,.3-.2.4-.3s.1-.4.1-.7c0-.2,0-.4,0-.5s0-.4,0-.5c0-.2,0-.4,0-.5,0-.2,0-.4,0-.5,0-.1,0-.3,0-.4s0-.3,0-.4c0-.2,0-.5,0-.7,0-.2,0-.5,0-.7,0-.3,0-.5,0-.8,0-.3,0-.5,0-.8,0-.3,0-.5,0-.8,0-.2,0-.5,0-.8,0-.1,0-.3,0-.4,0-.1,0-.3,0-.4,0-.2,0-.3,0-.5s0-.3,0-.5c0-.2,0-.4-.1-.6,0-.2,0-.3,0-.5,0-.1-.1-.3-.2-.4-.1-.1-.3-.2-.5-.2,0,0-.1,0-.2,0s0,0-.1-.1c0,0,0,0-.1,0,0,0-.1,0-.3,0-.3,0-.5-.2-.5-.6,0-.2,0-.3,0-.5,0-.1.2-.3.3-.4.1-.1.2-.2.4-.3.1,0,.3-.2.4-.3.2-.2.4-.3.6-.3.2,0,.4,0,.6,0h.5c.2,0,.4,0,.7,0,.2,0,.4,0,.7,0,.1,0,.3,0,.4,0,.1,0,.3,0,.4,0,0,0,.1,0,.2,0,0,0,.1,0,.2,0,.1,0,.2,0,.3-.1,0,0,.1,0,.2-.1,0,0,0,0,0,0s0,0,0,0c0,0,0,0,0,0,0,0,0,0,0,0,0,0,0,0,0,0,0,0,0,0,.1,0,0,0,0,0,.1,0,0,0,0,0,0,0,0,0,0,0,.1,0,0,0,0,0,.2,0,.2,0,.3,0,.5,0,.2,0,.3,0,.5,0,.2,0,.4,0,.6,0,.2,0,.3.1.5.3.2.1.3.2.5.3.1.1.3.3.4.4.1,0,.2.2.3.2.1,0,.2,0,.3.1s.2.1.3.2c0,0,.2.2.2.3,0,.2.2.3.3.5.1.1.2.3.3.4.1.1.2.3.3.4.1.1.2.3.3.5.2.4.3.9.4,1.4,0,.5.2.9.3,1.4,0,.2,0,.4.1.6,0,.2,0,.4,0,.6,0,.1,0,.2,0,.3,0,0,0,.2,0,.3,0,0,0,.1,0,.2,0,0,0,.1,0,.2,0,0,0,.1,0,.2,0,0,0,.1,0,.2ZM77.4,20.3c0-.3,0-.6-.1-.9,0-.3-.2-.5-.4-.8,0,0,.1-.2.2-.3,0-.1,0-.2,0-.3,0-.1,0-.2,0-.3,0-.1,0-.2,0-.3,0,0,0-.1,0-.2s0,0-.1-.1c0,0-.1,0-.2-.1s0,0-.1-.2c0,0,0-.1,0-.2,0,0,0-.1,0-.2,0,0,0-.1,0-.2,0,0,0-.1-.1-.2,0,0,0-.1,0-.2,0,0,0-.1,0-.2,0,0,0-.2,0-.2,0,0,0-.1-.2-.2s-.1,0-.2,0c0,0-.2,0-.3,0-.1,0-.2,0-.4,0-.1,0-.3-.1-.4-.2-.1,0-.3-.2-.4-.2-.1,0-.3,0-.4,0-.2,0-.4,0-.7,0s-.4,0-.7.1c-.2,0-.4,0-.5,0s-.4,0-.6,0c-.2,0-.3.1-.4.2-.1.1-.2.3-.2.5,0,.3,0,.5,0,.8,0,.3,0,.6,0,.8,0,.6,0,1.2,0,1.8,0,.6,0,1.2,0,1.8,0,.3,0,.6,0,.8s0,.6,0,.9c0,.4,0,.7,0,1.1,0,.4,0,.7,0,1.1,0,.2,0,.3,0,.5s0,.3,0,.5,0,.3.2.4c0,.1.2.2.4.3.2,0,.5.2.7.2s.5.1.7.1c.2,0,.3,0,.4-.1.1,0,.3-.1.4-.2,0,0,.2,0,.3,0,.1,0,.2,0,.4,0s.2,0,.3-.1c.1,0,.2-.1.3-.2.1-.1.2-.2.3-.3.1-.1.3-.2.4-.2,0,0,.2,0,.2-.1,0,0,0-.1,0-.2,0,0,0-.1,0-.2,0,0,0-.1.1-.2.1,0,.2-.2.3-.3,0-.1.1-.3.1-.4,0-.1,0-.3,0-.4,0-.1,0-.3,0-.4,0-.3.2-.6.3-.9s.2-.6.2-1c0,0,0-.2,0-.2,0,0,0-.1,0-.2,0,0,0,0,0,0,0,0,0,0,0,0s0,0,0,0c0,0,0-.1,0-.2Z"/>
  <path class="st0" d="M95.4,16.9s0,0,0,.2,0,.2-.1.3c0,.1-.1.2-.2.3,0,0,0,.2-.1.2h0s0,0,0,0h0s0,0,0,0c0,0,0,0-.1,0h0c-.2,0-.3,0-.5-.1-.1,0-.3-.2-.4-.3,0,0,0,0,0-.2,0,0,0-.2,0-.3s0-.2,0-.3c0,0,0-.1,0-.2,0,0,0-.1,0-.2,0,0,0-.1,0-.2,0-.2,0-.5,0-.7,0-.2,0-.5,0-.7,0-.2,0-.3,0-.4,0-.1.1-.3.2-.4h0c0,0-.2,0-.2,0,0,0-.1,0-.3,0-.3,0-.6,0-.8.1-.3,0-.6.1-.9.1-.1,0-.2,0-.4,0s-.2,0-.4,0c-.2,0-.5,0-.7,0-.2,0-.5,0-.7,0,0,0,0,0,0,0,0,0,0,0,0,0s0,0,0,0c0,0,0,0,0,0s0,0,0,0c0,0-.1,0-.2,0,0,0-.1.1-.2.1-.1,0-.2,0-.4,0-.1,0-.3,0-.4,0,0,0-.2,0-.3,0-.1,0-.3,0-.4,0-.1,0-.3,0-.4-.1-.1,0-.2-.1-.2-.2,0,0-.1,0-.2.1s0,.1,0,.2c0,0,0,.1,0,.2,0,0-.1,0-.2,0-.2,0-.4,0-.4.2,0,.1,0,.3,0,.4,0,0,0,.2,0,.3,0,0,0,.2,0,.3,0,.3,0,.6,0,.9,0,.3,0,.6,0,.9,0,.1,0,.3,0,.5s0,.4,0,.6,0,.4.1.6.1.3.2.3c0,0,.1,0,.2,0,0,0,.1,0,.2,0,.3,0,.5,0,.8,0s.5,0,.8,0c.1,0,.2,0,.3,0s.2,0,.3,0c.1,0,.3,0,.3-.2,0-.1.1-.3.2-.5,0-.2,0-.4,0-.6s0-.3,0-.4c0-.2,0-.4,0-.6s0-.4,0-.6h0c.2,0,.4,0,.5,0,.2,0,.3,0,.5,0,0,0,.1,0,.2,0,0,.2,0,.3,0,.5,0,.2,0,.3,0,.5,0,.2-.1.3-.3.4,0,.1.1.2.2.3,0,.1,0,.2,0,.3,0,0,0,.2,0,.2,0,0,0,.2,0,.2,0,0,0,.1,0,.2,0,0,0,0,0,.1,0,0,0,.2-.1.3,0,.1-.1.3-.1.4,0,.2,0,.3,0,.5s0,.4.1.6c0,.2,0,.4.1.6,0,.2,0,.4,0,.6,0,.1,0,.2,0,.4,0,.1,0,.3,0,.4,0,.1,0,.2-.2.3,0,.1-.2.2-.3.3-.1,0-.3,0-.4-.1-.1,0-.2-.2-.2-.3,0-.1-.1-.2-.2-.3,0-.1,0-.3,0-.4,0-.2,0-.4,0-.5,0-.2,0-.3-.1-.4,0-.1-.2-.2-.4-.3-.2,0-.5,0-.9,0-.1,0-.3,0-.5,0-.2,0-.4,0-.7.1-.2,0-.4.1-.6.3-.2.1-.2.2-.2.4,0,0,0,.2,0,.3,0,0,0,.2,0,.3,0,0,0,.2,0,.2,0,0,0,.2,0,.2,0,.2,0,.4,0,.6s0,.4,0,.6c0,.2,0,.4,0,.7s0,.4,0,.7c0,.2,0,.4.2.6.1.1.3.2.5.3.2,0,.4.1.6.1.2,0,.4,0,.6,0,.4,0,.7,0,1.1,0s.7,0,1.1,0c.2,0,.5,0,.7,0,.2,0,.5,0,.7,0,.2,0,.4,0,.6,0s.4,0,.6-.1.4-.2.5-.3c.1-.1.2-.3.3-.5,0,0,0-.1,0-.1s0,0,.1,0c0,0,0,0,.1,0,0,0,0,0,0-.1,0,0,0-.1,0-.2,0,0,0-.2,0-.2,0-.1,0-.3,0-.4s0-.3,0-.4c0-.2,0-.4.1-.6s.1-.4.1-.6c0,0,0-.1,0-.2,0,0,0-.1,0-.2,0,0,0,0,.1-.1s.1,0,.2-.1c0,0,.2,0,.3,0,0,0,.2,0,.2,0,.2,0,.3,0,.5.2.1.1.2.3.3.5,0,.2.1.4.1.6,0,.2,0,.4,0,.5,0,.2,0,.5,0,.8,0,.3,0,.6-.1.9,0,.3-.1.6-.2.9,0,.3-.2.6-.2.8,0,.1,0,.2-.1.2s0,0-.1.1-.1,0-.2.1c0,0-.1,0-.2.2,0,0-.2.1-.3.1-.2,0-.4,0-.5,0-.1,0-.3,0-.4,0-.1,0-.2,0-.3,0-.3,0-.5,0-.6,0-.2,0-.3,0-.4,0,0,0-.2,0-.2,0,0,0,0,0-.1,0,0,0-.1,0-.1,0,0,0-.1,0-.2,0s-.2,0-.3,0c0,0-.2,0-.3,0-.6,0-1.1,0-1.7,0-.6,0-1.1,0-1.7,0-.4,0-.8,0-1.2.1-.4,0-.8.1-1.2.1-.1,0-.3,0-.5,0s-.3,0-.5-.1c-.2,0-.3-.2-.4-.3s-.2-.3-.2-.4c0-.2,0-.3.2-.5.1-.2.3-.3.4-.4.2-.1.3-.3.5-.4.2-.1.3-.2.4-.3,0,0,0-.1,0-.2,0,0,0-.1,0-.2,0-.1,0-.2,0-.3s0-.2,0-.3c0,0,0-.2.1-.2,0,0,0-.2,0-.2,0,0,0-.1,0-.1,0,0,0,0,0-.1,0-.2-.1-.4-.2-.5,0-.2,0-.4,0-.6,0-.1,0-.3,0-.4,0-.1,0-.2,0-.3,0,0,0-.2,0-.3,0-.1,0-.2.1-.4,0,0,0-.1-.1-.2,0-.1,0-.2,0-.3v-1.6c.1,0,.1,0,.1-.1,0,0,0-.1,0-.2,0,0,0-.1,0-.2,0-.2,0-.3,0-.5,0-.2,0-.3,0-.5,0,0,0-.1,0-.2,0,0,0-.2,0-.3s0-.2,0-.3,0-.2,0-.4c0-.1,0-.2,0-.3,0,0,0-.2,0-.3,0,0,0-.2,0-.3,0,0,0-.2,0-.3,0-.2,0-.3,0-.4,0-.1-.1-.3-.2-.4,0-.2-.2-.3-.2-.5,0-.1-.1-.2-.2-.3,0,0-.2-.1-.3-.2s-.3,0-.5,0c-.1,0-.2,0-.3,0,0,0-.2-.1-.3-.2,0,0-.1-.2-.2-.3,0-.1,0-.2,0-.3,0-.1,0-.3.2-.4.1,0,.3-.2.5-.2s.4-.1.6-.1c.2,0,.5,0,.7,0,.2,0,.4,0,.6,0,.2,0,.3,0,.4,0,.2,0,.3,0,.4,0s.3,0,.4,0c.3,0,.6,0,.9,0,.3,0,.6,0,.9,0,.3,0,.6,0,.9,0s.6,0,.9,0c.3,0,.6,0,.9,0,.3,0,.6,0,.8,0,.3,0,.5,0,.8-.1.3,0,.5-.1.8-.1.1,0,.2,0,.3,0,.2.2.3.3.5.5s.3.2.4.4.2.3.3.4c0,.2.1.4.1.7,0,0,0,.2,0,.4,0,.1,0,.3,0,.4,0,.1,0,.3,0,.4,0,.1,0,.2.2.2,0,.1,0,.2-.2.2,0,.1,0,.2,0,.3,0,.1,0,.2.1.3s0,.2.1.3,0,.2,0,.3ZM85.5,19.8s0,0-.1,0,0,0,0,.1c.3.2.5.3.7.5.2.1.3.3.4.4,0,0,.2.1.2.2s0,0,.1-.1c0-.1,0-.3,0-.4,0-.1-.2-.2-.3-.3-.1,0-.3-.1-.5-.2-.2,0-.3,0-.4,0Z"/>
  <path class="st0" d="M110.8,22.6c0,.4,0,.8,0,1.1s0,.8-.1,1.1c0,0-.1,0-.2-.1s-.1,0-.2,0c0,0-.2,0-.2,0,0,0-.1.1-.1.2,0,0,0,.2.1.2s.2,0,.3,0c0,0,.1,0,.2,0,0,0,0,.2,0,.3,0,0-.1.2-.2.3s-.1.2-.2.3c0,0-.2.2-.2.2,0,0,0,.1-.1.2s-.1.2-.2.2c0,0-.1.1-.2.2,0,0-.1,0-.2,0,0,0-.1,0-.2,0,0,0,0,0-.2,0,0,0-.1,0-.2.1,0,0,0,.2,0,.3h0c0,.2,0,.2-.2.3-.2,0-.4.1-.6.2-.2,0-.5.1-.7.2-.2,0-.4.1-.6.2-.3.1-.6.2-1,.3-.3,0-.7.1-1,.1-.3,0-.5,0-.7,0-.2,0-.5-.1-.7-.2s-.5-.2-.7-.2c-.2,0-.5,0-.7,0,0,0-.2,0-.4,0-.2,0-.3,0-.4.1,0,0,0,0-.1.2,0,0,0,.1-.1.1,0,0,0,0-.2,0,0,0-.1,0-.1,0-.2,0-.3-.2-.4-.4-.1-.1-.2-.3-.3-.5,0-.2-.1-.4-.2-.6,0-.2,0-.4,0-.6,0-.1,0-.3,0-.4,0-.1,0-.3,0-.4,0-.2,0-.4,0-.5s0-.4,0-.5c0-.1,0-.3,0-.4,0-.1,0-.3,0-.4,0,0,0-.2,0-.3,0,0,0-.2,0-.3,0,0,0-.1,0-.2,0,0,0,0,0-.2,0,0,0-.2,0-.3,0,0,0-.2,0-.3,0,0,0-.1,0-.2,0,0,0-.2,0-.3,0,0,0-.2,0-.2,0,0,0,0,.2,0,.1,0,.3,0,.4.3.1.2.3.4.4.6.1.2.2.5.3.7,0,.2.1.4.1.5,0,0,0,0,0,.1,0,0,0,0-.1,0,0,0,0,.1.1.2,0,.1,0,.2,0,.3,0,0,0,.2,0,.3s0,.2,0,.3c0,0,0,.1,0,.2s0,.1.1.2c0,0,.1.2.2.2,0,0,0,0,.1,0,0,0,.1,0,.2,0s.2,0,.3,0c.2.2.3.4.5.6s.4.4.6.5c.3,0,.7.1,1,.2.3,0,.7,0,1,0,.3,0,.5,0,.7,0,.2,0,.4-.1.6-.2.2,0,.4-.2.5-.3.2-.1.3-.3.5-.4.1,0,.3-.2.4-.3.1,0,.3-.2.4-.3.1,0,.3-.2.4-.3.1-.1.2-.2.3-.4,0,0,.1-.2.2-.3.1,0,.2-.2.2-.3s0,0,0-.1c0-.2,0-.5,0-.7s0-.5,0-.7c0-.2,0-.4-.1-.5,0-.1-.2-.2-.3-.3s-.3-.2-.4-.2c-.1,0-.3-.2-.4-.3-.1-.1-.3-.2-.5-.3-.2,0-.4,0-.6,0-.2,0-.4,0-.6,0-.2,0-.4,0-.5-.2,0,0,0,0-.1,0,0,0-.1,0-.2,0,0,0-.1,0-.2,0-.1,0-.2,0-.3,0-.1,0-.2,0-.3-.1-.1,0-.2,0-.3-.1-.1,0-.2,0-.3,0-.2,0-.3,0-.4,0,0,0-.2,0-.3,0,0,0-.2,0-.3,0,0,0-.2-.1-.3-.2-.4-.3-.8-.5-1.3-.6,0-.2-.2-.4-.3-.7,0,0-.2-.1-.2-.2s-.2-.1-.2-.2c0,0-.1-.2-.2-.4,0-.2-.1-.4-.2-.6s-.1-.4-.2-.6c0-.2,0-.3,0-.4,0-.2,0-.3,0-.5,0-.2.1-.3.3-.4,0,0,0,0,0,0,0,0,0,0,0,0s0,0,0,0c0,0,0,0,0-.1s0,0,0,0,0,0,0,0c0-.2.1-.3.2-.5s.2-.3.4-.4c.1-.1.3-.3.4-.4s.3-.2.4-.3c0,0,.2-.2.3-.3,0-.1.2-.2.2-.2,0,0,.1,0,.2,0,0,0,.1,0,.2,0,0,0,.1,0,.2,0s.1,0,.2,0c0,0,.1,0,.2-.1s0,0,0-.1c0,0,0,0,.1,0,0,0,.1,0,.3,0,0,0,.2,0,.3,0,0,0,.2,0,.3,0,.3,0,.6,0,.9,0s.6,0,.9,0c.2,0,.4,0,.6,0s.4,0,.6,0c.1,0,.3,0,.4,0s.3,0,.4,0c.1,0,.2,0,.3,0s.1-.1.1-.2c0,0,0-.1.1-.2s.1,0,.2,0c.2,0,.3,0,.5.1s.3.2.5.2h0c0,.1,0,.2,0,.3,0,.1,0,.3,0,.4,0,.1,0,.3.1.4,0,.1,0,.2.1.4,0,.1,0,.3,0,.4,0,0,0,.2,0,.2,0,0,0,.2,0,.2,0,.2,0,.3,0,.3,0,0,0,.1,0,.2,0,0,0,.1,0,.2,0,0,0,.1,0,.2,0,.2,0,.4,0,.6s0,.4,0,.6c0,0,0,.2,0,.3,0,.1,0,.3,0,.4,0,.1,0,.2-.1.3s-.1.1-.2.1c-.1,0-.2,0-.3-.1-.1,0-.2-.2-.3-.3,0-.1-.2-.2-.2-.4,0-.1,0-.3-.1-.4s0-.3-.1-.4,0-.3-.2-.4c-.1-.2-.2-.4-.3-.5-.1-.2-.2-.4-.3-.5,0-.1-.2-.2-.2-.3,0,0-.1,0-.2-.1,0,0-.1,0-.2,0,0,0-.2,0-.3,0-.1,0-.3,0-.4-.1-.1,0-.3,0-.4-.1-.1,0-.3,0-.4-.1-.1,0-.3,0-.4,0-.2,0-.4,0-.7.1-.2,0-.5.2-.7.3s-.5.2-.7.3c-.2.1-.4.2-.6.3-.2.4-.3.8-.3,1.3,0,.3,0,.6.1.8,0,.2.2.4.3.5.1.1.3.3.5.4.2.1.4.2.5.4.2.1.4.2.6.3.2,0,.4,0,.6,0,.1,0,.3,0,.4,0s.3,0,.4,0c.1,0,.3,0,.4,0,.1,0,.3,0,.4.1.1,0,.3,0,.4.1s.3,0,.4,0c.1,0,.3,0,.4,0,.1,0,.2,0,.4,0,.1,0,.2,0,.3,0s.2.1.3.2c0,0,.2.1.3.2,0,0,.2,0,.3,0,.2,0,.3.1.4.2,0,0,.2.1.3.2s.2.2.2.3c0,0,.2.2.2.4,0,.1.2.3.3.4.1.1.2.2.3.4,0,0,0,.1,0,.2,0,0,0,.1,0,.2,0,0,0,.1,0,.2s0,0,.2,0c0,0,0,.2,0,.2,0,0,0,.2,0,.2Z"/>
  <path class="st0" d="M127.6,27.8c0,.1,0,.2-.2.3-.1,0-.3.1-.4.2-.2,0-.4,0-.6.1-.2,0-.4,0-.6,0-.2,0-.4,0-.5,0s-.3,0-.4,0c-.2,0-.4,0-.5,0-.2,0-.3,0-.5.1-.1,0-.3.1-.4.1-.1,0-.2,0-.4,0-.1,0-.2,0-.3-.1,0,0-.2-.1-.3-.1-.1,0-.2,0-.3,0s-.2-.1-.3-.2c0,0-.2-.2-.2-.3,0-.1,0-.2,0-.3,0-.1,0-.3.1-.4s.2-.2.3-.2.2-.1.4-.1.3,0,.4,0c.1,0,.2,0,.3,0,0,0,.2,0,.3.1,0-.1,0-.2,0-.3,0,0,.1-.2.2-.2,0,0,.1-.1.2-.2,0,0,0-.2,0-.3,0-.2,0-.4,0-.6s0-.4,0-.6c0-.1,0-.3,0-.4,0-.1,0-.3,0-.4,0-.2,0-.3,0-.5,0-.2,0-.3,0-.5,0-.2,0-.3,0-.4,0,0,0-.2,0-.3,0-.2,0-.3,0-.5,0-.2-.1-.3-.2-.4s-.2-.2-.3-.3c-.1,0-.2-.2-.4-.2-.4,0-.8-.1-1.1-.1-.1,0-.2,0-.3,0s-.2,0-.2,0c0,0,0,0-.2,0,0,0-.1,0-.1,0,0,0-.2,0-.3,0s-.2,0-.3.1-.2,0-.3.1c-.1,0-.2,0-.3,0-.2,0-.3,0-.5,0s-.4,0-.5,0c-.2,0-.3,0-.5.1-.2,0-.3.2-.4.3h0c0,.2,0,.4,0,.5,0,.1,0,.3,0,.4,0,.2,0,.3,0,.5s0,.3-.2.5c0,0,0,.1,0,.2,0,.1,0,.2,0,.3,0,.1,0,.2,0,.4,0,0,0,.1,0,.2,0,0,0,.1,0,.2,0,.1,0,.2,0,.3,0,0,0,.2.1.3s0,.2.1.3c0,0,0,.2,0,.3,0,.2,0,.4.2.5.1.1.3.2.5.3.2,0,.4.1.6.2.2,0,.4.1.5.2,0,0,0,.1,0,.2,0,.1,0,.3,0,.4,0,.1,0,.2,0,.4s0,.2-.1.3c0,0-.2.1-.4.2-.1,0-.3,0-.4,0-.1,0-.3,0-.3,0,0,0,0,0,0,0,0,0,0,0-.1,0,0,0,0,0-.1,0,0,0,0,0-.1,0-.4,0-.9.1-1.3.2s-.9,0-1.3,0c-.1,0-.3,0-.4,0s-.4,0-.5-.1c-.2,0-.3-.1-.5-.2s-.2-.2-.2-.4c0,0,0-.2,0-.3,0-.1,0-.2.1-.3,0,0,.1-.2.2-.3s.1-.1.2-.2c.2,0,.4-.1.6-.2.2,0,.4-.1.6-.2s.3-.2.5-.4c.1-.2.2-.5.2-.9,0-.2,0-.4,0-.6,0-.2,0-.4,0-.6,0-.1,0-.2,0-.3s0-.2,0-.3c0-.3,0-.7,0-1s0-.7,0-1c0-.1,0-.3,0-.4,0-.1,0-.3,0-.4,0-.2,0-.4,0-.6,0-.2,0-.4,0-.6,0,0,0,0,0,0,0,0,0-.1,0-.2,0-.1,0-.2,0-.4,0-.1,0-.3,0-.4s0-.2,0-.3c0-.2,0-.4,0-.5,0-.2,0-.4,0-.5,0-.1,0-.2,0-.3,0-.1,0-.2,0-.3,0,0,0,0,0,0,0,0,0,0,0,0s0,0,0,0c0,0,0,0,0-.1,0,0,0-.1.1-.2,0,0,.1-.2.1-.3,0,0,0-.2,0-.3,0-.1-.1-.3-.2-.4,0-.1-.1-.2-.2-.4,0-.1-.2-.2-.2-.2-.1,0-.3-.1-.5-.2-.2,0-.4,0-.5-.1-.2,0-.3-.1-.4-.3-.1-.1-.2-.3-.2-.5,0-.2,0-.4.2-.5.1-.1.3-.2.4-.3.2,0,.4-.1.6-.2s.4,0,.5,0c.1,0,.2,0,.4,0s.3,0,.4,0c.1,0,.3,0,.4.1.1,0,.2,0,.3.1.2,0,.4-.1.6-.1.2,0,.4,0,.6,0,.1,0,.2,0,.4,0,.1,0,.3,0,.4.1.1,0,.2.2.3.3,0,.1.1.3.1.5,0,0,0,.2,0,.2,0,0,0,0-.1,0-.2,0-.4,0-.6.1s-.4.2-.6.4-.3.3-.4.5-.2.4-.2.6c0,0,0,.2,0,.3,0,.2.1.5.2.7s0,.5,0,.7c0,.2,0,.4,0,.6s0,.4,0,.6c0,.3,0,.5.2.6s.3.3.5.4c.2,0,.4.2.6.2.2,0,.5,0,.7,0,.2,0,.4,0,.7,0,.2,0,.4,0,.7,0,.2,0,.5,0,.7,0,.2,0,.4,0,.7,0,0,0,.2,0,.3,0s.2,0,.2,0c0,0,0,0,.1,0,0,0,.1,0,.2-.1,0,0,.1,0,.2,0s0,0,.1,0c.1,0,.2,0,.3-.2,0-.1.1-.3.2-.4,0-.2,0-.3,0-.5s0-.3,0-.4c0-.1,0-.2,0-.4s0-.2-.1-.3c0-.1,0-.2-.1-.3,0-.1,0-.2,0-.4,0-.2,0-.3,0-.5,0-.2,0-.3,0-.5,0-.3,0-.6-.2-.7-.1-.2-.3-.3-.4-.4-.2,0-.4-.1-.6-.2-.2,0-.4,0-.6-.1-.2,0-.3-.1-.4-.2-.1-.1-.2-.3-.2-.5,0-.2,0-.3.1-.4,0,0,.2-.2.3-.2.1,0,.2,0,.4,0,.1,0,.3,0,.4,0,.2,0,.5,0,.7,0,.2,0,.5,0,.7,0,.2,0,.5,0,.8,0,.3,0,.6,0,.8,0,.2,0,.3,0,.5,0,.2,0,.4,0,.6.1.2,0,.4.2.5.3s.2.3.2.5c0,.1,0,.3-.1.3,0,0-.2.2-.3.2-.1,0-.2.1-.4.2-.1,0-.3,0-.4.1-.1,0-.3.1-.4.2s-.2.1-.3.3c0,0,0,.2,0,.3,0,.1,0,.2,0,.3,0,.2,0,.4,0,.6,0,.2,0,.4,0,.6,0,.7,0,1.4,0,2s0,1.4,0,2c0,.2,0,.5,0,.7s0,.5,0,.7c0,.2,0,.4.1.6,0,.2,0,.4,0,.6,0,.1,0,.2,0,.3,0,0,0,.1,0,.2,0,0,0,0,0,.1,0,0,0,0,0,.1,0,.1,0,.3,0,.4,0,.1,0,.2,0,.4,0,.2,0,.3,0,.5,0,.2,0,.3,0,.5,0,0,0,0,0,.2,0,.1,0,.2,0,.3,0,.1,0,.2.1.3,0,.1,0,.2,0,.2,0,0,.2.2.3.2.1,0,.3,0,.4.1s.3,0,.4.1c.1,0,.3,0,.4.2,0,0,.2.1.3.2,0,0,.1.2.1.3Z"/>
  <path class="st0" d="M140.8,13.4c0,0,0,.2,0,.2s-.1.1-.2.2c0,0-.2.1-.2.2s-.2.1-.2.1c-.1.1-.3.2-.5.2-.1,0-.2,0-.3,0s-.2,0-.3,0c0,0,0,0-.1,0-.1,0-.2,0-.3,0s-.2,0-.3,0c0,0-.1,0-.2,0-.1,0-.2-.1-.2-.2h0c0,0-.1,0-.2,0,0,0,0,0,0,.1,0,0,0,0,0,.1,0,0,0,.1,0,.2,0,0,0,.1-.2.1,0,0-.2,0-.2,0s-.2.1-.2.3c0,.1,0,.4-.1.7,0,.1,0,.3,0,.4,0,.1,0,.3,0,.4,0,.3,0,.5,0,.8,0,.3,0,.5,0,.8,0,.2,0,.3,0,.5,0,.2,0,.3,0,.5,0,.2,0,.4.3.5,0,0,0,0-.1.2,0,0,0,.2,0,.3,0,.1,0,.2,0,.3,0,.1,0,.2,0,.2,0,0,0,0,0,.1,0,0,0,.1,0,.2,0,0,0,.1,0,.2,0,0,0,0,0,.1,0,0,0,.1,0,.2s0,.2,0,.3c0,0,0,.2,0,.3,0,.4,0,.7,0,1.1,0,.4,0,.7,0,1.1,0,.2,0,.5,0,.7,0,.2,0,.5,0,.7,0,.2,0,.4.1.5,0,.1.2.2.3.3.1,0,.3.1.4.1s.3,0,.5,0c.3,0,.6,0,.9,0s.6,0,.9,0c.3,0,.5,0,.7.3.2.2.2.4.2.7,0,.2,0,.4-.1.6,0,.2-.2.3-.3.5-.1.1-.3.2-.4.3-.2,0-.4.1-.6.1-.2,0-.3,0-.5,0-.3,0-.6-.1-.9-.1-.3,0-.6,0-.9,0-.3,0-.5,0-.8,0-.3,0-.5,0-.8,0-.3,0-.6,0-1,0-.3,0-.6,0-1,0-.1,0-.2,0-.3,0-.1,0-.2,0-.3,0,0,0-.2,0-.3,0s-.2,0-.3,0-.2,0-.4,0c-.1,0-.2,0-.4,0-.3,0-.5,0-.7-.2-.2-.1-.3-.4-.3-.7,0,0,0-.2,0-.3,0,0,0-.2.1-.3,0-.1.1-.2.2-.4,0-.1.2-.2.3-.3,0,0,.2-.1.3-.1,0,0,.1,0,.2,0s.1,0,.2.1.2,0,.3.1c0,0,.2,0,.4,0,.3,0,.6,0,.9,0,.3,0,.6-.1.8-.3.2-.1.5-.3.6-.5.2-.2.2-.5.3-.8,0-.1,0-.2,0-.4s0-.2,0-.4c0-.4,0-.8,0-1.2,0-.4,0-.8,0-1.2,0-.3,0-.5.1-.8s.1-.5.1-.8c0-.2,0-.3,0-.4,0-.1,0-.3,0-.4,0,0,0-.1,0-.2,0,0,0-.1,0-.2,0-.2,0-.3,0-.5,0-.2,0-.3,0-.5,0-.3,0-.5,0-.8,0-.3,0-.5,0-.8,0-.2,0-.3,0-.5s0-.3-.1-.5c0-.2,0-.3-.1-.5,0-.2,0-.3,0-.5,0,0,0-.2,0-.3,0-.1-.1-.2-.2-.3,0,0-.2-.1-.3-.2,0,0-.2-.1-.3-.2s-.2-.1-.2-.2c0,0,0,0-.1,0,0,0,0,.1,0,.2,0,0,0,.1,0,.2,0,0,0,0-.1,0-.2,0-.4,0-.6,0-.2,0-.4,0-.6,0-.1,0-.3,0-.5,0-.2,0-.4,0-.5-.1-.2,0-.3-.1-.4-.2-.1-.1-.2-.2-.2-.4,0-.1,0-.2,0-.3,0-.1.1-.2.2-.3,0-.1.2-.2.2-.3s.2-.2.2-.3c0,0,.1,0,.2-.1s.2,0,.4,0,.3,0,.4,0c.2,0,.3,0,.5,0,.2,0,.4,0,.5,0,.2,0,.3,0,.4,0,.2,0,.4,0,.7,0s.5,0,.8,0,.5,0,.7,0c.2,0,.3,0,.3,0,0,0,.1,0,.2.1,0,0,.1,0,.2.1,0,0,.1,0,.2.1,0,0,.1,0,.2,0,0,0,0,0,.1,0,0,0,0,0,0-.1,0,0,0,0,0-.1,0,0,0,0,0-.1h0c.2,0,.3,0,.3.2s0,.2,0,.4c0,0,0,0,0,0,0,0,0,0,0,0,0,0,.1,0,.2-.1,0,0,0-.1,0-.2,0,0,0-.1,0-.2,0,0,0,0,.2,0,0,0,0,0,.1,0h0c.2.1.3.2.4.3,0,0,.2.1.2.2s0,0,.1,0c0,0,0,0,0,0,0,0,0,0,0,0,0,0,0,0,0,0,0,0,0,0,0,0,0,0,0,0-.1,0,0,0,0,0-.1-.1,0,0,0,0,0-.1,0,0,.2,0,.2,0s.1,0,.1,0c0,0,0,0,.1,0,0,0,0,0,.2,0,0,0,.2,0,.2,0,0,0,0,0,.1,0,0,0,0,0,.1,0,0,0,0,0,.1,0,0,0,0,0,0,0,0,0,0,0,0,0,0,0,0,0,.1,0s0,0,0,.1c0,.1,0,.2,0,.3,0,0,0,.1,0,.2,0,0,0,0,0,.1,0,0,0,.1.1.2,0,0,0,.1,0,.2ZM135.1,14.1c0,0,0-.1,0-.2,0,0-.1-.1-.2-.1,0,0-.2,0-.2.1,0,0,0,.2,0,.2,0,0,0,0,0,.1,0,0,0,0,0,0,0,0,0,0,.1,0,0,0,.1,0,.1,0,0,0,0,0,0,0s0,0,0-.1Z"/>
  <path class="st0" d="M156.5,17.5s0,0,0,.2,0,.2-.1.3c0,.1-.1.2-.2.3,0,0,0,.2-.1.2h0s0,0,0,0h0s0,0,0,0c0,0,0,0-.1,0h0c-.2,0-.3,0-.5-.1-.1,0-.3-.2-.3-.3,0,0,0,0,0-.2,0,0,0-.2,0-.3s0-.2,0-.3c0,0,0-.1,0-.2,0,0,0-.1,0-.2,0,0,0-.1,0-.2,0-.2,0-.5,0-.7,0-.2,0-.5,0-.7,0-.2,0-.3,0-.4,0-.1.1-.3.2-.4h0c0,0-.2,0-.2,0,0,0-.1,0-.3,0-.3,0-.6,0-.8,0-.3,0-.6,0-.9,0-.1,0-.2,0-.4,0s-.2,0-.4,0c-.2,0-.5,0-.7,0s-.5,0-.7,0c0,0,0,0,0,0,0,0,0,0,0,0,0,0,0,0,0,0,0,0,0,0,0,0,0,0,0,0,0,0,0,0-.1,0-.2,0,0,0-.1.1-.2.1-.1,0-.2,0-.4,0-.1,0-.3,0-.4,0,0,0-.2,0-.3,0-.1,0-.3,0-.4,0-.1,0-.3,0-.4-.1-.1,0-.2-.1-.2-.3,0,0-.1,0-.2.1,0,0,0,.1,0,.2,0,0,0,.1,0,.2s-.1,0-.2,0c-.2,0-.4,0-.4.2,0,.1,0,.3-.1.4,0,0,0,.2,0,.3,0,0,0,.2,0,.3,0,.3,0,.6,0,.9,0,.3,0,.6,0,.9,0,.1,0,.3,0,.5,0,.2,0,.4,0,.6,0,.2,0,.4.1.6,0,.2.1.3.2.3,0,0,.1,0,.2,0,0,0,.1,0,.2,0,.3,0,.5,0,.8,0,.3,0,.5,0,.8,0,.1,0,.2,0,.3,0,0,0,.2,0,.3,0,.1,0,.3,0,.3-.2,0-.1.1-.3.2-.5,0-.2,0-.4,0-.6,0-.2,0-.3,0-.4,0-.2,0-.4,0-.6,0-.2,0-.4,0-.6h0c.2,0,.4,0,.5.1.2,0,.3,0,.5.1,0,0,.1,0,.2,0,0,.2,0,.3,0,.5,0,.2,0,.3,0,.5,0,.2-.1.3-.3.4,0,.1.1.2.1.3,0,.1,0,.2,0,.3,0,0,0,.2,0,.2,0,0,0,.2,0,.2,0,0,0,.1,0,.2,0,0,0,0,0,.1,0,0,0,.2-.1.3,0,.1-.1.3-.1.4,0,.2,0,.3,0,.5s0,.4,0,.6c0,.2,0,.4,0,.6,0,.2,0,.4,0,.6,0,.1,0,.2,0,.4,0,.1,0,.3,0,.4,0,.1-.1.2-.2.3,0,0-.2.2-.3.2-.1,0-.3,0-.4-.1s-.2-.2-.2-.3-.1-.2-.1-.3c0-.1,0-.3,0-.4,0-.2,0-.4,0-.6,0-.2,0-.3,0-.4,0-.1-.2-.2-.4-.3-.2,0-.5-.1-.9-.1-.1,0-.3,0-.5,0s-.5,0-.7.1c-.2,0-.4.1-.6.2-.2.1-.3.2-.3.4,0,0,0,.2,0,.3,0,0,0,.2,0,.3,0,0,0,.2,0,.2,0,0,0,.2,0,.2,0,.2,0,.4,0,.6,0,.2,0,.4,0,.6,0,.2,0,.4,0,.7,0,.2,0,.4-.1.7,0,.2,0,.4.2.6s.3.3.4.3c.2,0,.4.1.6.2.2,0,.4,0,.6,0,.4,0,.7,0,1.1,0,.4,0,.7,0,1.1,0,.2,0,.5,0,.7,0,.2,0,.5,0,.7,0,.2,0,.4,0,.6,0,.2,0,.4,0,.6,0,.2,0,.4-.1.5-.3.1-.1.2-.3.3-.5,0,0,0-.1,0-.1,0,0,0,0,.1,0s0,0,.1,0c0,0,0,0,0-.1,0,0,0-.1,0-.2s0-.2,0-.2c0-.1,0-.3,0-.4,0-.1,0-.3,0-.4,0-.2,0-.4.1-.6,0-.2.1-.4.1-.6,0,0,0-.1,0-.2,0,0,0-.1,0-.2,0,0,0,0,.1-.1s.2,0,.2-.1c0,0,.2,0,.3,0,0,0,.2,0,.2,0,.2,0,.3,0,.5.2.1.1.2.3.3.5,0,.2.1.4.1.6,0,.2,0,.4,0,.5,0,.2,0,.5,0,.8,0,.3-.1.6-.2.9,0,.3-.2.6-.2.9,0,.3-.2.5-.3.8,0,.1,0,.2-.1.2,0,0,0,0-.1.1,0,0-.1,0-.2.1,0,0-.1,0-.2.2,0,0-.2.1-.4.1-.2,0-.4,0-.5,0-.1,0-.3,0-.4,0-.1,0-.2,0-.3,0-.3,0-.5,0-.6,0-.2,0-.3,0-.4,0,0,0-.2,0-.2,0,0,0,0,0-.1,0,0,0-.1,0-.2,0,0,0-.1,0-.2,0,0,0-.2,0-.3,0s-.2,0-.3,0c-.6,0-1.1,0-1.7,0-.6,0-1.1,0-1.7,0-.4,0-.8,0-1.2.1-.4,0-.8,0-1.2,0-.1,0-.3,0-.5,0-.2,0-.3,0-.5-.2-.2,0-.3-.2-.4-.3-.1-.1-.2-.3-.2-.4,0-.2,0-.3.2-.5.1-.1.3-.3.5-.4.2-.1.4-.2.5-.3s.3-.2.5-.3c0,0,0-.1,0-.2,0,0,0-.1,0-.2,0-.1,0-.2,0-.3,0-.1,0-.2,0-.3,0,0,0-.1.1-.2,0,0,.1-.2.1-.2,0,0,0-.1,0-.1,0,0,0,0,0-.1,0-.2-.1-.4-.2-.6,0-.2,0-.4,0-.6,0-.1,0-.3,0-.4,0-.1,0-.2,0-.3,0,0,0-.2,0-.3,0-.1,0-.2.1-.3,0,0,0-.1,0-.2,0-.1,0-.2,0-.3l.2-1.6s0,0,0-.1c0,0,0-.1,0-.2s0-.1,0-.2c0-.2,0-.4,0-.5s0-.3,0-.5c0,0,0-.1,0-.2,0,0,0-.2.1-.3,0,0,0-.2.1-.3,0-.1,0-.2,0-.4,0-.1,0-.2,0-.3,0,0,0-.2,0-.3,0,0,0-.2,0-.3,0,0,0-.2,0-.3,0-.2,0-.3,0-.4,0-.1-.1-.3-.2-.4,0-.2-.2-.3-.2-.5s-.1-.2-.2-.3c0,0-.2-.1-.3-.2-.1,0-.3,0-.5,0-.1,0-.2,0-.3-.1,0,0-.2-.1-.2-.2s-.1-.2-.2-.3c0-.1,0-.2,0-.3,0-.1,0-.3.2-.3.1,0,.3-.2.5-.2s.4,0,.6-.1.5,0,.7,0c.2,0,.4,0,.6,0,.2,0,.3,0,.4,0,.2,0,.3,0,.4,0,.1,0,.3,0,.4,0,.3,0,.6,0,.9,0,.3,0,.6,0,.9,0,.3,0,.6,0,.9,0,.3,0,.6,0,.9,0,.3,0,.6,0,.9.1.3,0,.6.1.8.1.3,0,.5,0,.8,0,.3,0,.5,0,.8,0,.1,0,.2,0,.3,0,.2.2.3.3.5.5.1.1.3.3.4.4.1.1.2.3.2.4s.1.4.1.7c0,0,0,.2,0,.4,0,.1,0,.3,0,.4,0,.1,0,.3,0,.4s0,.2.2.2c0,.1,0,.2-.2.2,0,.1,0,.2,0,.3,0,.1,0,.2.1.3,0,.1,0,.2,0,.3,0,.1,0,.2,0,.3ZM146.5,20.1s0,0-.1,0c0,0,0,0,0,.1.3.2.5.3.7.5.2.2.3.3.4.4,0,0,.2.1.2.2,0,0,0,0,.1-.1,0-.1,0-.3,0-.4,0-.1-.2-.2-.3-.3s-.3-.2-.5-.2-.3,0-.4,0Z"/>
  <path class="st0" d="M172.5,26.2c0,0,0,.2,0,.3,0,0,0,.2,0,.3,0,0,0,.2,0,.2,0,0,0,.1,0,.2,0,0,0,.2,0,.3,0,.1,0,.3,0,.4,0,.1,0,.3-.1.4s0,.2-.1.3h-.3c0,.1,0,.3-.2.5-.3.1-.5.2-.8.2-.2,0-.4,0-.7,0-.1,0-.2,0-.3,0-.1,0-.2,0-.4,0-.3,0-.5,0-.7,0-.2,0-.4,0-.6.2,0,0-.1,0-.2,0-.1,0-.3,0-.4,0s-.3,0-.4-.1c-.1,0-.3,0-.4-.1s-.3,0-.4,0c-.2,0-.4,0-.6,0-.2,0-.4,0-.6,0-.2,0-.3,0-.4,0s-.3,0-.4,0c-.2,0-.3,0-.4,0s-.3,0-.4,0c-.1,0-.3,0-.4,0-.1,0-.3,0-.4,0-.2,0-.5,0-.7,0-.2,0-.5,0-.7,0-.3,0-.6,0-.8-.3-.2-.2-.3-.4-.3-.8,0-.1,0-.3.1-.4.2-.3.4-.5.6-.7.2-.1.4-.2.5-.3.2,0,.3,0,.5-.1.2,0,.3,0,.4-.1.1,0,.2-.2.3-.4,0-.2.1-.5.1-.8,0-.5,0-.9,0-1.3,0-.4,0-.9,0-1.3,0-.2,0-.4,0-.7s0-.4,0-.7c0-.4,0-.8,0-1.1,0-.4,0-.7,0-1.1,0-.3,0-.5,0-.8,0-.2,0-.5,0-.8,0-.2,0-.3,0-.4,0-.1,0-.3,0-.4,0-.2,0-.4,0-.7s0-.4,0-.7c0-.1,0-.2,0-.4,0-.1,0-.2-.1-.3,0,0-.1-.2-.2-.2,0,0-.2,0-.4,0-.1,0-.3,0-.4,0-.1,0-.3,0-.4,0,0,0-.2,0-.2,0,0,0-.2,0-.2,0,0,0,0-.1,0-.2,0,0,0-.1,0-.2,0,0,0-.1-.1-.2,0,0-.1,0-.2-.1,0-.1.2-.3.2-.4,0-.2.2-.4.3-.5s.2-.3.3-.4c.1-.1.3-.2.5-.2.1,0,.3,0,.4.1.1,0,.3.1.4.1.2,0,.4,0,.5,0,.2,0,.4-.1.5,0,.2,0,.3,0,.4.2.1,0,.3,0,.4,0,0,0,.2,0,.2,0,0,0,.1,0,.2,0,.2,0,.5,0,.7,0s.4,0,.7,0c.2,0,.4,0,.5,0,.2,0,.3.1.5.2.2,0,.3.2.5.2s.3.1.5.2c0,0,0,0,0,0s0,0,0,0h0s0,0,0,0c0,.1,0,.3,0,.4,0,.1,0,.3-.1.4,0,.2-.1.3-.2.3,0,0-.2,0-.4,0,0,0-.1,0-.2,0,0,0-.1,0-.2,0-.3,0-.6,0-.8,0s-.6,0-.8.2c0,.1-.1.3-.1.5,0,.1,0,.3,0,.4s0,.3,0,.4c0,0-.2,0-.2,0,0,0-.1,0-.2,0,0,0-.1,0-.2,0s0,.1,0,.2c0,0,0,.1,0,.1,0,0,0,0,.1,0s.1,0,.2,0c0,0,.1,0,.1,0v.2c0,.3,0,.6-.1.8s-.1.5-.1.8c0,0,0,.2,0,.3,0,0,0,.2,0,.3,0,0,0,.2,0,.2,0,0-.1,0-.2,0,0,0-.1,0-.2,0,0,0,0,0,0,.1,0,0,0,0,0,0,0,0,0,.1,0,.2,0,0,0,.1,0,.1s.1,0,.2,0c0,0,.1,0,.2,0,0,0,0,0,0,0,0,0,0,.2,0,.2,0,0,0,.1,0,.2,0,.2,0,.4.1.6s.1.4.1.6c0,.2,0,.4,0,.5,0,.2,0,.4,0,.5,0,.1,0,.2,0,.3,0,.1,0,.2.1.3,0,.1,0,.2.1.3,0,.1,0,.2,0,.3,0,.2,0,.3,0,.5,0,.2,0,.3,0,.5,0,0,0,0,0,.2,0,.2,0,.4,0,.6,0,.2,0,.5.1.7,0,.2.2.4.3.6.1.2.3.2.6.2.2,0,.5,0,.7,0,.2,0,.5,0,.7,0,.1,0,.3,0,.4,0,.1,0,.3,0,.4.1s.3,0,.4.1c.1,0,.3,0,.4,0,.2,0,.5,0,.7,0,.2,0,.5,0,.7-.1.3,0,.6-.2.7-.3s.3-.4.3-.7c0-.3,0-.7,0-1,0-.3-.1-.7,0-1,0-.2,0-.4.1-.6,0-.2.2-.4.3-.5.2,0,.4,0,.6,0,.3,0,.6.1.7.3s.2.5.2.8c0,.1,0,.2,0,.3,0,0,0,0,0,.1,0,0,0,0,0,0,0,0,0,0,.1.1s0,0,0,.1c0,0,0,.1,0,.2,0,0,0,0,0,.1,0,0,0,.2,0,.3,0,.1,0,.2,0,.4,0,.1,0,.2,0,.3,0,.1,0,.2,0,.2h0Z"/>
  <path class="st0" d="M188,22.6c0,.2,0,.5,0,.8,0,.3-.1.6-.2.9s-.2.7-.3,1c-.1.3-.2.7-.4,1-.1.3-.3.6-.4.9-.1.3-.2.5-.4.7,0,0-.1.2-.2.2,0,0-.2.2-.3.2s-.2.2-.3.2c0,0-.1.2-.1.2,0,0-.2,0-.3,0s-.3,0-.4,0-.3,0-.4.1c-.1,0-.2,0-.2.1,0,.2-.1.3-.2.3,0,0,0,0,0,0s0,0-.1,0c0,0-.2,0-.4,0,0,0-.2,0-.3,0-.1,0-.2,0-.3,0-.1,0-.2,0-.3,0-.1,0-.2,0-.2,0-.2,0-.3,0-.5,0-.2,0-.3,0-.5,0-.1,0-.2,0-.3,0-.3,0-.6.2-.8.2s-.5,0-.8,0l-1.6-.3c-.1,0-.2,0-.4,0-.1,0-.2,0-.4,0-.2,0-.3,0-.5,0-.1,0-.3,0-.5,0,0-.1,0-.2,0-.3,0-.1,0-.2-.1-.3,0-.1,0-.2-.1-.3,0-.1,0-.2,0-.3,0-.2,0-.3.2-.4.1,0,.2-.1.4-.2.2,0,.3,0,.5,0,.2,0,.3,0,.5-.1s.3-.2.4-.3c.1-.1.2-.4.2-.6,0-.2,0-.4,0-.5,0-.2,0-.4,0-.5s0-.4,0-.5c0-.2,0-.4,0-.5,0-.1,0-.3,0-.4,0-.1,0-.3,0-.4,0-.2,0-.5,0-.7,0-.2,0-.5,0-.7,0-.3,0-.5,0-.8,0-.3,0-.5,0-.8,0-.3,0-.5,0-.8,0-.2,0-.5,0-.8,0-.1,0-.3,0-.4,0-.1,0-.3,0-.4,0-.2,0-.3,0-.5,0-.2,0-.3,0-.5,0-.2,0-.4,0-.6,0-.2,0-.4,0-.5,0-.2-.1-.3-.2-.4-.1-.1-.3-.2-.5-.3,0,0-.1,0-.2,0,0,0,0,0-.1-.1s0,0-.1-.1c0,0-.1,0-.3,0-.3,0-.5-.3-.5-.6,0-.2,0-.3.1-.5,0-.1.2-.3.3-.4s.2-.2.4-.3c.1,0,.3-.2.4-.3.2-.1.4-.2.6-.3.2,0,.4,0,.6,0h.5c.2,0,.4,0,.7,0,.2,0,.4,0,.7,0,.1,0,.3,0,.4,0,.1,0,.3,0,.4,0,0,0,.1,0,.2,0,0,0,.1,0,.2,0,.1,0,.2,0,.3,0,0,0,.1,0,.2,0,0,0,0,0,0,0,0,0,0,0,0,0,0,0,0,0,0,0,0,0,0,0,0,0,0,0,0,0,0,0,0,0,0,0,.1,0,0,0,0,0,.1,0,0,0,0,0,0,0,0,0,0,0,.1,0,0,0,0,0,.2,0,.2,0,.3,0,.5,0,.2,0,.3,0,.5,0,.2,0,.4,0,.6.1s.3.2.5.3.3.2.4.4c.1.1.3.3.4.4.1,0,.2.2.3.2.1,0,.2.1.3.2,0,0,.2.1.3.2,0,0,.2.2.2.3,0,.2.2.3.3.5s.2.3.3.4.2.3.3.4c0,.2.2.3.2.5.2.4.3.9.4,1.4,0,.5.1,1,.2,1.4,0,.2,0,.4.1.6s0,.4,0,.6c0,.1,0,.2,0,.3,0,0,0,.2,0,.3,0,0,0,.1,0,.2,0,0,0,.1,0,.2,0,0,0,.1,0,.2,0,0,0,.2,0,.2ZM186.1,21.7c0-.3,0-.6,0-.9,0-.3-.2-.6-.4-.8,0,0,.1-.2.2-.3,0-.1,0-.2,0-.3,0-.1,0-.2,0-.3,0-.1,0-.2,0-.3,0,0,0-.1,0-.2,0,0,0,0-.1-.1,0,0,0,0-.2-.1,0,0,0,0-.1-.2,0,0,0-.1,0-.2,0,0,0-.1,0-.2s0-.1,0-.2,0-.1-.1-.2c0,0,0-.1,0-.2s0-.1,0-.2c0,0,0-.2,0-.2,0,0,0-.1-.1-.2,0,0-.1,0-.2-.1,0,0-.2,0-.3,0-.1,0-.2,0-.4-.1-.1,0-.3-.2-.4-.2-.1,0-.3-.2-.4-.2-.1,0-.3-.1-.4-.1-.2,0-.4,0-.7,0-.2,0-.4,0-.7,0-.2,0-.4,0-.6,0s-.4,0-.6,0-.3,0-.4.2-.2.3-.2.5c0,.3,0,.5,0,.8,0,.3,0,.6,0,.8,0,.6,0,1.2-.1,1.8s-.1,1.2-.1,1.8c0,.3,0,.6,0,.8s0,.6,0,.9c0,.4,0,.7-.1,1.1,0,.4-.1.7-.1,1.1,0,.2,0,.3,0,.5,0,.2,0,.3,0,.5,0,.2,0,.3.2.4,0,.1.2.2.4.3.2,0,.5.2.7.3s.5.1.7.1c.2,0,.3,0,.5,0,.1,0,.3-.1.5-.2,0,0,.2,0,.3,0s.3,0,.4,0c.1,0,.2,0,.4-.1.1,0,.2-.1.3-.2.1-.1.2-.2.3-.3s.3-.2.5-.2c0,0,.2,0,.2,0,0,0,0-.1,0-.2s0-.1,0-.2c0,0,0-.1.2-.2.1,0,.2-.2.3-.3s.1-.2.2-.4c0-.1,0-.3,0-.4s0-.3.1-.4c0-.3.2-.6.3-.9.1-.3.2-.6.2-.9,0,0,0-.2,0-.2,0,0,0-.1,0-.2,0,0,0,0,0,0s0,0,0,0c0,0,0,0,0,0s0-.1,0-.2Z"/>
  <path class="st0" d="M203.1,24.9c0,.4,0,.8-.1,1.1,0,.4-.1.8-.2,1.1,0,0-.1-.1-.2-.1,0,0-.1,0-.2,0,0,0-.2,0-.2,0,0,0-.1.1-.1.2,0,0,0,.2.1.2s.2,0,.3,0c0,0,.1,0,.2,0,0,0,0,.2,0,.3,0,0-.1.2-.2.3,0,0-.2.2-.2.2,0,0-.2.1-.2.2,0,0-.1.1-.2.2,0,0-.1.2-.2.2,0,0-.1.1-.2.2s-.1,0-.2,0c0,0-.1,0-.2,0s0,0-.2,0c0,0-.1,0-.2.1,0,0,0,.2,0,.3h0c0,.2,0,.2-.2.3-.2,0-.4.1-.6.2s-.5.1-.7.2c-.2,0-.4.1-.6.2-.3.1-.6.2-1,.3-.3,0-.7,0-1,0-.3,0-.5,0-.7-.1-.2,0-.5-.2-.7-.2s-.5-.2-.7-.2c-.2,0-.5-.1-.7-.1,0,0-.2,0-.4,0-.2,0-.3,0-.4.1,0,0,0,0-.1.2,0,0,0,.1-.1.1,0,0,0,0-.2,0s-.1,0-.1,0c-.2,0-.3-.2-.4-.4-.1-.2-.2-.3-.3-.5,0-.2-.1-.4-.2-.6s0-.4,0-.6c0-.1,0-.3,0-.4,0-.1,0-.3,0-.4,0-.2,0-.4,0-.5,0-.2,0-.4,0-.5,0-.1,0-.3,0-.4s0-.3,0-.4c0,0,0-.2,0-.3s0-.2,0-.3c0,0,0-.1,0-.2s0,0,0-.2c0,0,0-.2,0-.3,0,0,0-.2,0-.3s0-.1,0-.2c0,0,0-.2,0-.3,0,0,0-.2,0-.2,0,0,0,0,.2,0,.1,0,.3,0,.4.3s.3.4.4.6c.1.2.2.5.3.7,0,.2,0,.4,0,.5,0,0,0,0,0,.1,0,0,0,0-.1,0,0,0,0,.1,0,.2,0,.1,0,.2,0,.3,0,0,0,.2,0,.3,0,0,0,.2,0,.3,0,0,0,.1,0,.2s0,.1.1.2c0,0,.1.2.2.2s0,0,.1.1.1,0,.2,0c0,0,.1,0,.3,0,.1.2.3.4.5.6.2.2.4.4.6.5.3,0,.7.2,1,.2.3,0,.7,0,1,.1.3,0,.5,0,.7,0,.2,0,.4-.1.6-.2.2,0,.4-.2.5-.3.2-.1.4-.2.5-.4.1,0,.3-.2.4-.2.1,0,.3-.2.4-.2s.3-.2.4-.3c.1-.1.2-.2.3-.4,0,0,.1-.2.2-.3.1,0,.2-.2.2-.3,0,0,0,0,0-.1,0-.2,0-.5,0-.7s0-.5,0-.7c0-.2,0-.4-.1-.5,0-.1-.2-.2-.3-.3s-.3-.2-.4-.3-.3-.2-.4-.3c-.1-.2-.3-.3-.5-.3-.2,0-.4,0-.6,0-.2,0-.4,0-.6,0-.2,0-.4-.1-.5-.2,0,0,0,0-.1,0,0,0-.1,0-.2,0s-.1,0-.2,0c-.1,0-.2,0-.3,0-.1,0-.2,0-.3-.1-.1,0-.2,0-.3-.1-.1,0-.2,0-.3,0-.2,0-.3,0-.4,0,0,0-.2,0-.3,0,0,0-.2,0-.3-.1,0,0-.2-.1-.3-.2-.4-.3-.8-.5-1.2-.6,0-.2-.2-.4-.3-.7,0,0-.2-.1-.2-.2,0,0-.2-.1-.2-.2,0,0,0-.2-.2-.4,0-.2-.1-.4-.2-.6,0-.2-.1-.4-.1-.6s0-.3,0-.4c0-.2,0-.3,0-.5,0-.2.1-.3.3-.4,0,0,0,0,0,0,0,0,0,0,0,0,0,0,0,0,0,0,0,0,0,0,0-.1,0,0,0,0,0,0,0,0,0,0,0,0,0-.2.1-.3.3-.5.1-.1.2-.3.4-.4.1-.1.3-.3.4-.4.2-.1.3-.2.4-.3.1,0,.2-.1.3-.3,0-.1.2-.2.2-.2,0,0,.1,0,.2,0,0,0,.1,0,.2,0,0,0,.1,0,.2,0,0,0,.1,0,.2,0,0,0,.1,0,.2-.1s0,0,0-.1c0,0,0,0,.1,0s.1,0,.3,0c0,0,.2,0,.3,0,0,0,.2,0,.3,0,.3,0,.6,0,.9,0,.3,0,.6,0,.9,0,.2,0,.4,0,.6,0,.2,0,.4,0,.6,0,.1,0,.3,0,.4.1s.3,0,.4,0c.1,0,.2,0,.3,0,0,0,.1-.1.1-.2s0-.1.1-.2c0,0,.1,0,.2,0,.2,0,.3,0,.5.1s.3.2.5.2h0c0,.1,0,.2,0,.3,0,.1,0,.3,0,.4s0,.3.1.4c0,.1,0,.2.1.4s0,.3,0,.4c0,0,0,.2,0,.2s0,.1,0,.2c0,.2,0,.3,0,.3,0,0,0,.1,0,.2,0,0,0,.1,0,.2,0,0,0,.1,0,.2,0,.2,0,.4,0,.6,0,.2,0,.4,0,.6,0,0,0,.2,0,.3,0,.1,0,.3,0,.4,0,.1,0,.2-.1.3,0,0-.1.1-.3.1-.1,0-.2,0-.3-.1-.1,0-.2-.2-.3-.3,0-.1-.2-.2-.2-.4s0-.3,0-.4,0-.3,0-.4,0-.3-.2-.4c-.1-.2-.2-.4-.3-.5-.1-.2-.2-.4-.3-.6,0-.1-.1-.2-.2-.3,0,0-.1,0-.2-.1,0,0-.1,0-.2,0,0,0-.2,0-.3,0-.1,0-.3,0-.4-.1-.1,0-.3-.1-.4-.1-.1,0-.3,0-.4-.1s-.3,0-.4,0c-.2,0-.4,0-.7,0-.2,0-.5.1-.7.2-.2,0-.5.2-.7.3-.2.1-.4.2-.7.3-.2.4-.3.8-.3,1.3,0,.3,0,.6,0,.8s.2.4.3.6.3.3.4.4c.2.1.3.3.5.4.2.1.4.2.6.3s.4,0,.6,0c.1,0,.3,0,.4,0,.1,0,.3,0,.4,0,.1,0,.3,0,.4,0,.1,0,.3,0,.4.1.1,0,.2.1.4.1.1,0,.3,0,.4,0,.1,0,.3,0,.4,0,.1,0,.2,0,.4,0,.1,0,.2,0,.3,0,0,0,.2.1.2.2,0,0,.2.1.2.2,0,0,.2,0,.3.1.1,0,.3.2.4.2,0,0,.2.1.3.2s.1.2.2.3.1.2.2.4c0,.1.2.3.3.4.1.1.2.2.3.4,0,0,0,.1,0,.2,0,0,0,.1,0,.2,0,0,0,.1,0,.2s0,0,.2,0c0,0,0,.2,0,.2s0,.2,0,.2Z"/>
</svg>