<?xml version="1.0" encoding="UTF-8"?>
<svg id="Layer_1" xmlns="http://www.w3.org/2000/svg" width="6.2in" height="1.3in" version="1.1" viewBox="0 0 446.4 93.6">
  <!-- Generator: Adobe Illustrator 30.3.0, SVG Export Plug-In . SVG Version: 2.1.3 Build 182)  -->
  <defs>
    <style>
      .st0 {
        font-family: SpecialElite-Regular, 'Special Elite';
        font-size: 19.1px;
        letter-spacing: .2em;
      }

      .st0, .st1 {
        isolation: isolate;
      }

      .st0, .st2 {
        fill: #f2f5f0;
      }
    </style>
  </defs>
  <g>
    <path class="st2" d="M38.7,43.9c0,.2,0,.5,0,.7,0,.2,0,.5,0,.7,0,.3,0,.5.2.8,0,.2.2.5.2.8v.6c0,.2-.2.4-.3.5,0,.2-.2.3-.3.4,0,0,0,.3,0,.4v.2h0v2.6c0,.2-.2.4-.2.5v.5c0,.2,0,.3-.2.4,0,0-.3.2-.6.2h-2c-.5,0-1.1,0-1.6.3s-1.1.3-1.6.3h-5.6c-.2,0-.5,0-.7.3s-.6.3-1,.3h-.7c-.2,0-.5,0-.7-.2s-.5,0-.7-.2h-.7c-.6,0-1.1,0-1.7.2-.5,0-1.1.2-1.7.2s-.6-.3-.8-.5c-.1-.3-.2-.6-.2-.9v-2c0-.3,0-.5-.1-.6,0,0,0-.2-.1-.2s0,0-.1,0v-.2c-.2-.3-.3-.6-.4-.9.2,0,.3,0,.3,0v-.3c0-.2,0-.5.2-.8.1-.3.3-.7.6-1s.5-.7.9-1.1c.3-.4.6-.7,1-1,.3-.3.7-.5,1-.7s.6-.3.9-.3h.1v-.3c0,0,0-.2-.2-.3h-.6q0,0-.2-.2c0-.2,0-.4.2-.6.1-.2.3-.4.4-.6.2-.2.4-.4.6-.6.2-.2.4-.3.5-.4v-.2c0-.3,0-.7.2-1,.1-.4.3-.7.5-1s.4-.7.7-1c.3-.3.5-.6.7-.8.1-.2.2-.3.3-.6s.2-.5.2-.7.2-.5.3-.7c0-.2.2-.3.4-.4.2,0,.4-.2.5-.3,0,0,.1,0,.2-.2v-.2c0,0,0-.3.1-.5,0-.2.2-.3.2-.3h.3v-1.3c0-.1,0-.3.1-.4,0-.1.1-.2.2-.3,0-.1.2-.3.3-.4.1-.2.2-.3.4-.5.1-.2.3-.4.4-.6s.2-.5.3-.7v-.7c0-.4-.2-.6-.4-.8-.2-.1-.5-.2-.8-.2h-1c-.3,0-.6-.2-.7-.4-.2,0-.3,0-.5.2s-.3.2-.4.3c-.1.1-.3.2-.4.3-.1.1-.3.2-.4.2-.2,0-.3,0-.5-.1s-.4-.2-.7-.1h-3c-.3,0-.5.1-.7.3s-.3.4-.4.6-.1.5-.1.8v4.5c0,.3-.1.6-.3.9-.1.3-.3.4-.6.4h-.3s-.2,0-.2,0c-.4-.2-.6-.4-.7-.7s-.2-.6-.2-.9v-1.1c0-.3,0-.6-.1-.9,0-.3,0-.6-.1-.9v-.4h-.2v-2.9c0-.2,0-.4.1-.6,0-.2.2-.3.3-.4s.2-.3.4-.4c.1-.1.2-.3.3-.5h1.3s.2,0,.2-.1l.3-.3c.1-.1.3-.2.5-.3.2,0,.4-.1.7-.2.5,0,1.1,0,1.6.2.5.1,1.1.2,1.6.2s.8-.1,1.1-.4c.3-.2.7-.4,1-.5s.7-.1,1.1-.2h2.3c.6,0,1.1,0,1.7-.2s1.1-.2,1.7-.2h1.4c0,0,.2,0,.3.1,0,0,0,.1,0,.2v.2s0,.1.2.2c0,0,.3.2.5.2s.3,0,.5.2c.2.1.3.3.5.6,0,.3.2.7.2,1.4s0,.4-.2.7c-.2.3-.3.5-.3.7,0,.3-.2.5-.2.8s0,.5-.3.8c0,.1,0,.3-.2.4,0,.1-.2.3-.3.4s-.2.3-.3.5c0,.2,0,.3,0,.5h0c-.3,0-.6.1-.8.4-.2.2-.3.5-.5.8,0,.3-.2.6-.3.9,0,.3-.2.5-.3.6l-.6.6c-.2.2-.5.3-.7.4,0,.3-.2.5-.3.8-.1.3-.3.5-.4.8s-.3.5-.4.8-.2.5-.2.8,0,.3-.1.3-.1,0-.2,0c0,0-.1,0-.2.2v.7h-.6c-.1,0-.2,0-.2,0v.4c0,.2,0,.4-.1.6s-.2.4-.3.5c-.1.2-.3.3-.5.4-.2,0-.4.2-.6.3v.3c0,.2,0,.4-.1.6-.1.2-.3.3-.4.5s-.3.4-.4.6-.2.4-.2.7v.3s-.1.2-.2.3l-.3.3c-.1,0-.2,0-.3.2-.2.2-.3.3-.4.5s-.1.3-.2.4v.4c0,0,0,.3-.2.5,0,0-.2.3-.3.5-.1.2-.3.4-.4.6l-.3.6c0,.2-.1.4-.1.5,0,.2,0,.3.2.4s.2.2.4.3.3,0,.4.2.3,0,.4,0c.3,0,.5,0,.8,0s.5,0,.8,0h4.8c.3,0,.7,0,1.2-.2.5,0,.9-.2,1.4-.4.4-.2.8-.4,1.1-.7s.5-.6.4-1v-2.9c0,0,0-.2,0-.2,0,0,0,0,0-.3v-.5c0-.2,0-.4,0-.5v-1.1l.2-.2s0,0,.2,0v-.2c0-.1,0-.2,0-.3,0,0,0-.2,0-.3,0-.2,0-.3.2-.3h.5c.3,0,.5,0,.6,0,0,0,.2.2.3.3s0,.3.2.4c0,.2,0,.3.3.4,0,0,.2.2.3.2h.8c0,0,.2,0,.3.2v.5c0,.3,0,.6.2.9,0,.3.2.6.2.9l-.2-.7ZM18.2,30.1c0-.1,0-.2-.2-.3s-.2,0-.4,0v.7c0,.1,0,.2.2.2s.2,0,.3-.2,0-.2,0-.3h.1ZM36.3,49.5s0-.2,0-.2h-.2c0,0-.2,0-.3.3v.4h.4c.2,0,.2,0,.2-.3v-.2Z"/>
    <path class="st2" d="M67.6,51.3c0,.2-.2.3-.3.4,0,0-.3.2-.4.3s-.3,0-.4,0h-.6c0,0-.2,0-.3,0,0,0,0,.2,0,.3s0,.2-.2.3-.2,0-.4,0h-.8c-.3,0-.5,0-.8.2s-.5.2-.8.2h-1.1c-.5,0-1-.2-1.5-.3s-.9-.3-1.3-.5c-.4-.2-.6-.5-.6-.8s0-.5.4-.8.6-.6.9-.9.6-.7.9-1.1.4-.9.4-1.4,0-.6-.2-.9c0-.3-.3-.5-.5-.8-.2-.2-.4-.5-.7-.7s-.5-.4-.7-.6h-.3c-.4,0-.8,0-1.2.2-.4,0-.8.2-1.2.2h-.6c-.2,0-.4-.2-.4-.4-.4.2-.7.4-1.1.6-.4.2-.7.3-1.1.5-.2,0-.4.2-.5.2s-.2,0-.2.2v.3c0,0,0,.3,0,.5v1.2c0,0,0,.2-.2.3,0,0,0,.2-.2.3v.7h0c0,.3,0,.5.2.6,0,0,.3.2.4.3.2,0,.3,0,.5.2.2,0,.4,0,.5.2s.3.2.4.4.3.4.4.6c0,.2.2.4.3.7,0,.2,0,.4,0,.6h0c0,0-.3,0-.3,0-.6,0-1.1,0-1.7,0-.6,0-1.1.2-1.7.2s-1.1.2-1.7.2-1.1,0-1.7,0h-2c-.4,0-.7,0-1-.3-.3,0-.4-.4-.5-.6,0-.3,0-.6.2-.8,0-.2.3-.4.5-.5s.5-.3.7-.4c.3,0,.6-.2.8-.3s.5-.2.8-.3c.2,0,.5-.2.6-.4.2-.2.3-.4.4-.7,0-.3.2-.7.2-1.1s0-.8,0-1.1,0-.7,0-.9v-1.1c0-.3.2-.4.3-.4,0,0,0,0,.2,0v-1.4s0-.2.2-.3l.2-.2s0-.2,0-.3c0-.2,0-.4-.2-.5s-.2-.3-.2-.5v-.3s0-.2.2-.2c0,0,0-.2.2-.2v-.3c0-.2,0-.3,0-.5,0-.2,0-.3,0-.5s0-.2,0-.3c0,0,.2,0,.3,0h.3s0,0,0,0c0,0,0,0-.2,0-.2,0-.3,0-.2.3,0,0-.2,0-.3-.2,0,0,0-.2,0-.3v-.4c0,0,0-.3.2-.4,0-.2.2-.3.2-.6v-.7c0-.3,0-.6-.2-.9s-.2-.6-.2-.8v-.4c0-.1,0-.3.2-.4,0,0,.2-.3.3-.4,0,0,0-.3.2-.5,0-.3,0-.6,0-.9v-1.8c0-.3,0-.6.2-.8,0-.2.2-.4.3-.6,0-.1,0-.3.2-.4,0-.1,0-.3,0-.5s0-.4,0-.7c0-.4,0-.8.3-1.2,0-.4.2-.8.3-1.2v-1.4c0-.2.2-.3.3-.5.2-.1.4-.3.8-.4.4-.1.7-.3,1.1-.3s.7-.1,1.1-.1h1.3c0,.2.2.5.3.6.2.2.3.4.5.6s.3.4.5.6.3.4.3.6c0,.3,0,.6.2.9,0,.3.2.6.4.9,0,.2.2.3.2.6v1c0,.3,0,.6,0,.9,0,.2,0,.5.2.9,0,.4.3.9.5,1.4s.4,1,.5,1.4c.2.5.3.8.4,1.1.2.5.2,1.1.3,1.7,0,.6,0,1.1.3,1.7.2.6.4,1.1.5,1.7.2.6.3,1.1.3,1.8s0,1.1.3,1.6.3,1,.4,1.6c.2.5.3,1,.4,1.6,0,.5.2,1.1.2,1.7v.7c0,.2,0,.4-.3.6l1.1,1.1c.4.4.8.7,1.2.9,0,0,.4,0,.7.2.3,0,.6,0,.9,0,.3,0,.6,0,.8.2s.4.3.4.5,0,.3,0,.5l.6-.7ZM58.2,39.6c0,0,0-.3-.2-.5,0-.2-.2-.4-.4-.7,0-.3-.3-.5-.4-.8,0-.3-.2-.6-.2-.9s0-.8-.2-1.1c0-.4-.2-.8-.3-1.1,0-.3,0-.7,0-1,0-.4,0-.7-.3-1.1,0-.3-.3-.6-.6-.8-.2-.2-.6-.3-1-.3,0,.1,0,.2,0,.3h-.2c0,.1-.2.1-.3.2,0,0-.2,0-.2.2v.2c0,.3,0,.5,0,.7,0,.2-.2.5-.3.7,0,.2,0,.5-.2.8v3c0,.2,0,.5-.2.7,0,.2,0,.4-.2.6v1.7c0,.3,0,.6.2.8,0,.2.3.4.5.5s.5,0,.8,0,.6,0,1,0c.4,0,.9-.2,1.3-.3s.8-.3,1.1-.6.5-.5.5-.8v-.4Z"/>
    <path class="st2" d="M99,49.7c0,.3-.2.6-.4.7-.2.2-.4.3-.7.4s-.6.2-.9.2h-2.1c-.4,0-.8,0-1.2,0h-1.8c-.3,0-.6,0-.8-.3-.2,0-.3-.4-.4-.7,0-.4,0-.6.2-.8s.3-.3.5-.4c.2,0,.5,0,.7,0,.3,0,.5,0,.7-.2s.4-.2.5-.4.2-.5.2-.9,0-.5,0-.8c0-.3,0-.5-.2-.8,0-.2,0-.5-.2-.8,0-.3,0-.5,0-.8,0-.2,0-.4,0-.6,0-.2,0-.4,0-.7s0-.9-.2-1.3c0-.4-.2-.8-.4-1.2,0-.3-.2-.5-.2-.8s0-.4,0-.6c0-.2,0-.4,0-.7s0-.6-.2-.9c0-.3-.2-.6-.2-.9v-1.2c0-.4,0-.8,0-1.2,0-.3,0-.6,0-.9,0-.3-.2-.7-.3-1s-.2-.7-.3-1c0-.3-.2-.6-.3-.9-.3.1-.5.3-.7.5s-.3.5-.4.7-.2.5-.2.8,0,.6,0,.8c0,.6-.2,1.1-.4,1.7-.2.5-.3,1.1-.4,1.7,0,.7,0,1.4,0,2.1v2c0,.7,0,1.3-.2,2,0,.7-.3,1.3-.6,2,0,.2-.2.5-.2.7v1.9c0,.4,0,.8,0,1s-.2.4-.3.6c0,0-.2.3-.3.4,0,0-.2.3-.2.6s0,.4-.3.5c-.2,0-.4.2-.7.3-.3,0-.5.2-.8.2s-.5,0-.6.2c-.2-.3-.4-.6-.6-.9-.2-.3-.5-.6-.6-.9-.2-.3-.4-.7-.4-1s-.2-.7-.3-1.1c0-.2,0-.3-.2-.4,0,0-.2-.3-.2-.4s0-.3-.2-.4v-1.3c0-.3,0-.7-.2-1.1-.3-.7-.5-1.4-.7-2.1-.2-.7-.3-1.4-.4-2.2,0-.7-.2-1.4-.2-2.1s-.2-1.4-.5-2.1c0-.3-.3-.6-.5-.9s-.3-.6-.5-.9v-.3c0-.2,0-.3,0-.5s0-.3,0-.5c0-.1,0-.2-.2-.2,0,0,0,.1,0,.3,0,.3-.2.4-.2.5s0,.2-.2.3c0,0,0,0-.2.2,0,0-.2.2-.3.4,0,.2-.2.3-.2.5,0,.3,0,.6.2,1,.2.3.2.6.2,1v1c0,.4,0,.8.2,1.2,0,.4.2.8.2,1.2s0,.7,0,1c0,.3,0,.6,0,1s0,.7.2,1c0,.3,0,.7.2,1v.8c0,.3,0,.5-.2.8,0,.3,0,.6-.2.8v.8c0,.6.2,1,.4,1.2.2.2.5.4.9.5.3,0,.7.2,1,.3.4,0,.7.3.9.6,0,.2-.2.5-.3.7,0,.3,0,.5-.3.7,0,.2-.2.3-.3.4,0,0-.2,0-.4.2h-.4c0,0-.3,0-.4.2-.2,0-.3.2-.3.3,0,0,0,.2-.2.2,0,0,0,0-.2.2h-1.9c-.3,0-.5,0-.8,0-.2,0-.5,0-.8,0s-.6,0-.9,0c-.3,0-.6-.2-.8-.4-.2-.2-.4-.4-.6-.7s-.2-.6-.3-.9c0-.5,0-.9.3-1.1s.4-.5.7-.6.6-.3,1-.4c.4,0,.7-.3,1-.5,0-.2,0-.5,0-.8v-5.4c-.2-.5-.4-1-.4-1.5s0-1,0-1.6v-.7c0-.2,0-.5.2-.7s0-.5.2-.7v-.7c0-.4,0-.9,0-1.3,0-.4,0-.9,0-1.3v-1.6c0-.3,0-.6-.2-.8,0-.3-.2-.5-.2-.8s0-.4,0-.5c0-.2,0-.3,0-.5s0-.2-.2-.3c0-.1-.2-.3-.2-.6v-1.2c0-.4,0-.8-.3-1s-.3-.4-.6-.6c-.2-.1-.4-.2-.7-.3-.2,0-.5-.1-.7-.2-.2,0-.4-.1-.5-.2,0,0-.2-.2-.2-.4s0-.4.3-.6c.2-.2.5-.4.8-.6s.6-.4,1-.6.7-.4,1-.5c.3-.2.6-.3.8-.4.2-.1.3-.2.4-.2,0,0,0,.2.2.2h1c0,0,.3,0,.3.2l.2.2c0,.1.2.1.3.2,0,0,.3.1.5.2.6.1,1,.3,1.3.6s.4.7.5,1.3v1l.6,1.5c0,.2,0,.3.2.5,0,.2,0,.3,0,.5.2.1.3.3.4.6,0,.3.2.5.2.8s0,.6,0,.9v.7c0,.3,0,.6.3,1,0,.3.2.6.2,1v1.2c0,.4,0,.7.2,1.1,0,.4.2.7.4,1.1,0,.3.3.7.4,1.1,0,.4.2.7.2,1.1v.8c0,.4,0,.8.2,1.2,0,.4.2.9.3,1.4,0,.5.2.9.4,1.3.2.4.3.7.5.9s.4.4.6.3c.3,0,.4,0,.5-.2s0-.3,0-.5v-.6c0-.2,0-.4.3-.4s.3-.3.4-.5c0-.3.2-.5.2-.9s0-.6,0-.9v-5.4c0-.8,0-1.6,0-2.4,0-.8.2-1.5.4-2.3,0-.1,0-.2.2-.3,0-.1,0-.2.2-.3,0-.1,0-.2.2-.3s0-.2,0-.4v-.2s0-.1,0-.2c0,0,0,0,0-.1h0v-.3h0c.2-.3.3-.7.3-1.1v-2.7c0-.5,0-.8.2-1.2h.5c.2,0,.4,0,.6-.1s.4-.2.5-.3.4-.2.6-.3c.2,0,.4-.1.6-.1h.4c.3,0,.5,0,.8-.2.2-.1.5-.2.7-.2h.3c0,.2,0,.1,0,.2h0c.2,0,.5,0,.7-.1.2,0,.5-.1.7-.1h.4c0,0,.2.1.3.3,0,.2.3.3.5.3h.6c.2.2.4.2.5.3.2,0,.2.3.2.5,0,.5,0,.9-.3,1.1-.2.2-.5.3-.8.4-.3,0-.6.1-.9.2-.3,0-.5.2-.6.4,0,.3-.2.5-.2.8s0,.6-.2.9v.6c0,.2,0,.5,0,.7,0,.2,0,.4.2.6s.2.4.2.6,0,.4.2.6c0,.8.2,1.6.2,2.3v1.4c0,.5,0,.9,0,1.4,0,.5,0,.9,0,1.4v1.4c0,.3,0,.6-.3.9v.5c0,.4,0,.8,0,1.3s.2.8.2,1.2.2.8.2,1.2,0,.8,0,1.3,0,1.1-.2,1.7c0,.6-.2,1.1-.2,1.7s0,.7.3,1,.5.3,1,.3h1.8c.2,0,.4,0,.6.3v.9h0,.3ZM78.3,29.1c0-.3,0-.5,0-.8,0-.3-.3-.5-.5-.6v.8c0,.2,0,.5,0,.7,0,.2.3.3.5.3v-.4ZM86.2,45.8h-.4c-.2,0-.5,0-.6.2-.2,0-.3.3-.2.6v.2h.4c.2,0,.5,0,.6-.2.2,0,.3-.3.3-.6v-.2h-.1ZM95.8,48.5s0-.2-.2-.2h-.7s0,0-.2,0v.2s0,0,.2.2.2,0,.3,0h.4c.2,0,.3,0,.3-.2h-.1Z"/>
    <path class="st2" d="M144.2,36.2v1.5c0,.6-.2,1.2-.3,1.8s-.3,1.3-.5,1.9-.4,1.3-.6,1.9c-.2.6-.4,1.2-.6,1.7-.2.5-.4,1-.6,1.3,0,0-.2.3-.4.5s-.4.3-.5.5c-.2.2-.3.3-.5.5-.1.2-.2.3-.2.5-.1,0-.3,0-.5,0-.2,0-.5,0-.8.2-.3,0-.5.2-.7.3-.2,0-.4.2-.4.3-.2.3-.2.5-.3.6,0,0,0,.2-.1.2h-.2c-.1,0-.4,0-.7,0-.1,0-.3,0-.5,0-.2,0-.4,0-.6.2-.2,0-.4,0-.6.2h-.5c-.3,0-.6,0-.9,0-.3,0-.6,0-.9,0h-.5c-.5.2-1,.4-1.5.5-.5,0-1,.2-1.6.2l-3.1-.3c-.2,0-.5,0-.7,0h-2.5c0-.2,0-.4-.2-.6,0-.2-.2-.4-.3-.6,0-.2-.2-.4-.3-.6,0-.2,0-.4,0-.6,0-.4,0-.6.3-.8.2-.2.4-.3.7-.4.3,0,.6,0,.9-.2.3,0,.6,0,.9-.3.3,0,.5-.3.7-.6s.3-.7.3-1.2v-1c0-.3,0-.7-.2-1,0-.3,0-.7-.2-1v-2.4c0-.4,0-.9,0-1.3,0-.4,0-.9,0-1.3v-3c0-.5,0-1-.2-1.4,0-.5-.2-1-.2-1.5v-2.5c0-.3,0-.6-.2-.9,0-.4-.2-.7-.2-1.1s0-.7-.2-.9c0-.3-.2-.5-.4-.7-.2-.2-.5-.4-1-.4s-.3,0-.4-.1c0,0-.2-.1-.2-.2,0,0-.2-.1-.3-.2,0,0-.3,0-.5-.1-.6,0-1-.4-1-1s0-.7.2-.9c0-.3.3-.5.5-.7s.4-.4.7-.6c.2-.2.5-.4.7-.6.4-.3.7-.5,1-.6.3,0,.7-.1,1.1-.1h.9c.4,0,.8,0,1.2-.1s.8,0,1.2,0h.7c.3,0,.5,0,.7.1.1,0,.3,0,.4.1h.4c.2,0,.4,0,.5-.2.1-.1.3-.2.4-.2h0s0,.1.2.1c0,0,.1,0,.2-.1,0,0,.1-.1.2-.2.1,0,.2,0,.2.1,0,0,.1,0,.2.1,0,0,.1,0,.2.1h2.1c.4,0,.8,0,1.1.2.3.1.7.3,1,.5s.6.4.9.6c.3.2.6.5.8.7s.4.3.6.4c.2,0,.4.2.6.3.2,0,.4.2.5.3.2.1.3.3.5.6.2.3.3.6.5.9s.4.5.6.8c.2.3.4.5.6.8s.4.6.5.9c.4.8.7,1.7.8,2.6s.3,1.8.5,2.7c0,.4.2.8.3,1.1s.1.8.2,1.1v1.5c0,0,0,.2.2.3,0,0,.1.2.2.3v.5-.2ZM140.5,34.8c0-.6-.1-1.1-.3-1.6s-.4-1-.8-1.5c.2-.2.3-.4.3-.6v-1.8c0-.1,0-.2-.1-.3,0,0-.2-.2-.3-.2,0,0-.2-.2-.3-.2s-.2-.2-.2-.3-.1-.3-.1-.4v-.6c0-.1-.1-.2-.2-.4,0-.1-.1-.2-.2-.3v-.9c0-.1-.2-.2-.3-.3-.1,0-.3-.1-.4-.2-.2,0-.4,0-.6-.1-.2,0-.4,0-.7-.2-.2-.1-.5-.3-.8-.4-.3-.2-.5-.3-.8-.4s-.5-.2-.8-.2-.8,0-1.2.1c-.4,0-.8.2-1.2.2h-1c-.4,0-.7,0-1,.1-.3,0-.6.2-.8.4s-.3.5-.3.9,0,1,.1,1.5c0,.5.1,1.1.1,1.6v6.8c0,.5,0,1.1.1,1.6,0,.5.1,1.1.1,1.6s0,1.4-.1,2.1-.1,1.4-.1,2.1v.9c0,.3,0,.6.1,1,0,.3.2.6.3.8.2.2.4.4.7.5.5,0,.9.3,1.3.4s.9.2,1.4.2.6,0,.8-.2c.3,0,.5-.3.8-.4.2,0,.4,0,.6-.2.2,0,.5,0,.7-.2.2,0,.4-.2.7-.3.2,0,.4-.2.5-.4.2-.2.4-.5.6-.7.2-.2.5-.3.8-.4.2,0,.3,0,.3-.2,0,0,0-.2.1-.3v-.4c0,0,.1-.3.3-.4.2-.2.4-.4.5-.6s.2-.5.3-.7c0-.3,0-.5.1-.8,0-.3,0-.5.1-.8.1-.6.3-1.2.5-1.8s.3-1.2.3-1.8,0-.3-.1-.4c0,0-.1-.3-.1-.4v-.2h.1v-.2c.1,0,.1-.2.1-.4v.3Z"/>
    <path class="st2" d="M174.5,28s0,.2-.1.3c0,.2-.1.4-.2.6,0,.2-.2.4-.3.6,0,.2-.2.3-.2.3h-.5c-.3,0-.6,0-.9-.2-.3-.1-.5-.3-.7-.6,0,0,0-.2-.1-.3,0-.2-.1-.3-.2-.5,0-.2-.1-.3-.1-.5v-1.1c0-.4,0-.9-.1-1.3,0-.4-.1-.9-.1-1.3v-.8c0-.3.2-.5.4-.8h-.1c-.2,0-.3,0-.4-.2-.1-.1-.3-.2-.5-.2-.5,0-1.1,0-1.6.2-.5.1-1.1.2-1.6.2h-1.4c-.4,0-.9,0-1.3.2s-.8.2-1.3.2h.1c.1-.1.2-.1.1-.2h-.3c-.1,0-.2,0-.3.2,0,.1-.2.2-.4.2h-2.8c-.3,0-.5-.1-.8-.2-.2-.1-.4-.3-.4-.5-.2,0-.3.1-.3.2s0,.2-.1.3c0,.1,0,.2-.2.3,0,0-.2.2-.4.2-.4,0-.7.2-.8.4-.1.2-.2.5-.2.8v5.4c0,.4,0,.8.1,1.2,0,.4.1.7.2,1.1s.3.5.4.5h.8c.5,0,1,0,1.5-.2.5,0,1-.2,1.5-.2h1.2c.3,0,.5,0,.6-.4.1-.3.3-.6.3-.9s0-.7.1-1.1v-3h.1c.4,0,.7,0,1,.2.3.1.7.2,1,.2h.3c0,.3,0,.6.2.9.1.3.2.6.2.9s-.2.6-.6.7c.1.2.2.4.3.6,0,.2.1.4.1.6v1c0,0,0,.3.1.3,0,0,.1.2.1.3,0,.2,0,.4-.2.7-.1.3-.2.5-.2.8s0,.6.1,1c0,.3.1.7.2,1.1,0,.4.1.8.2,1.1,0,.4,0,.8.1,1.2v.7c0,.2,0,.5-.1.7,0,.2-.2.4-.3.6-.1.2-.3.4-.5.5-.3,0-.5,0-.7-.2s-.3-.3-.5-.5c-.1-.2-.2-.4-.3-.6,0-.2-.1-.5-.2-.7,0-.4,0-.7-.1-1,0-.3,0-.6-.2-.8-.1-.2-.4-.4-.8-.5s-1-.2-1.8-.2h-1c-.4,0-.8,0-1.3.2-.4,0-.8.3-1.1.5s-.5.5-.5.8v4.3c0,.4,0,.8-.1,1.2s-.2.8-.1,1.2c0,.5.1.8.4,1.1.2.3.5.5.9.6s.7.2,1.1.3.8,0,1.1,0c.7,0,1.4,0,2.1-.2.7,0,1.4-.2,2.1-.2h3.7c.4,0,.8,0,1.2-.2.4,0,.7-.3.9-.5.3-.2.4-.6.5-1,0,0,0-.2.1-.3,0,0,.1,0,.2,0,0,0,.1,0,.2,0v-.2c0,0,0-.2-.1-.4,0-.2-.1-.3-.2-.4,0-.3,0-.6-.1-.8v-.8c0-.4,0-.8.2-1.1.1-.3.2-.7.2-1.1v-.6s0-.2.2-.3.3-.2.5-.2.3,0,.5-.2.3,0,.4,0c.4,0,.7,0,.9.4.2.2.4.6.5.9.1.4.2.7.3,1.1v2.5c0,.6-.2,1.1-.3,1.7s-.2,1.2-.4,1.7c-.2.6-.3,1-.5,1.5,0,.2-.2.4-.2.5s-.2.2-.3.3c0,0-.2,0-.3.2-.1,0-.2.2-.4.3-.1,0-.3.2-.7.3h-2.4c-.5,0-.9,0-1.2.2-.3,0-.6.2-.8.2s-.3,0-.4,0c0,0-.1,0-.3,0s-.2,0-.3,0c0,0-.2,0-.4,0h-1.1c-1.1,0-2.2,0-3.2,0-1.1,0-2.1,0-3.2.2-.7,0-1.5,0-2.2.3s-1.4.2-2.2.2h-.9c-.3,0-.6,0-.9-.3-.3,0-.5-.3-.8-.5-.2-.2-.3-.5-.3-.8s.1-.6.3-.9c.2-.3.5-.6.8-.8s.7-.5,1-.7.6-.4.8-.6v-1.2c0-.2,0-.4.1-.7,0,0,.1-.3.2-.5.1-.2.2-.3.2-.5v-.3s0-.2-.1-.3c-.2-.4-.3-.7-.4-1,0-.3-.1-.7-.1-1.1v-1.9c0-.2.1-.4.2-.7,0,0-.1-.3-.2-.5,0-.2-.1-.4-.1-.5l.3-3.1v-1c0-.3,0-.7-.2-1-.1-.3-.2-.6-.2-1v-.4c0-.2.1-.3.2-.5,0-.2.1-.4.2-.6s0-.5,0-.7,0-.4-.1-.5c0-.1-.1-.3-.1-.5s0-.3.1-.5.1-.4.1-.6c0-.3,0-.6-.2-.8-.1-.3-.2-.5-.3-.8-.2-.4-.3-.6-.4-.9,0-.2-.2-.4-.3-.5s-.3-.2-.5-.3-.5-.1-1-.1-.4,0-.6-.2c-.2-.1-.3-.2-.5-.4-.1-.2-.3-.4-.3-.6s-.1-.4-.1-.6c0-.3.1-.5.3-.7s.5-.3.9-.4.8-.2,1.2-.3c.4,0,.9-.1,1.3-.2h7c.6,0,1.2,0,1.8-.2s1.2-.2,1.8-.2,1.1,0,1.6.2c.5.1,1.1.2,1.6.2s1,0,1.5-.2c.5-.1,1-.2,1.5-.2h.6c.3.3.6.6.9.9.3.2.5.5.7.7s.4.5.5.8.2.7.3,1.3v1.5c0,.3,0,.5.1.7,0,.2.2.3.3.4,0,.2,0,.3-.3.3,0,.2,0,.4.1.6s.2.4.2.6.1.4.2.6v.6l1-.2ZM155.8,33.6h-.2s-.1,0-.1.2c.6.3,1,.6,1.3.9.3.3.6.5.8.7s.3.3.4.3.2,0,.3-.3,0-.5,0-.7c-.2-.2-.4-.4-.6-.6-.3-.2-.6-.3-.9-.4-.3,0-.6,0-.8,0h-.2Z"/>
    <path class="st2" d="M203.7,38.6c0,.7,0,1.5-.1,2.2,0,.7-.2,1.4-.2,2.2-.1,0-.2-.2-.3-.2h-.4c-.2,0-.3,0-.5.2-.1,0-.2.2-.2.4s0,.3.3.3h.8c0,.2,0,.4-.1.5,0,.2-.2.4-.3.5-.1.2-.3.3-.4.5-.2.2-.3.3-.4.4,0,0-.2.2-.3.4s-.2.3-.3.5-.2.3-.4.4c-.1,0-.3.2-.4.2s-.3,0-.3,0c0,0-.2,0-.3,0-.2,0-.3,0-.3.3v.8s-.1.2-.5.3c-.3,0-.7.2-1.1.4-.4,0-.9.3-1.3.4-.5,0-.8.3-1.1.4-.6.2-1.2.5-1.8.6-.6.2-1.2.2-1.9.3-.5,0-.9,0-1.4-.2s-.9-.3-1.3-.4-.9-.3-1.3-.4-.9-.2-1.4-.2h-.7c-.3,0-.5,0-.7.3,0,0-.1.2-.2.3,0,.2-.2.2-.3.2h-.3c-.1,0-.2,0-.3,0-.3-.2-.6-.4-.8-.7s-.4-.6-.6-.9c-.2-.3-.3-.7-.4-1,0-.4-.1-.7-.1-1.1v-1.4c0-.3,0-.7-.1-1,0-.3-.1-.7-.1-1s0-.5.1-.7c0-.2.1-.5.1-.7s0-.4-.1-.5c0-.2-.1-.3-.1-.5s0-.2.1-.3c0,0,.1-.2.1-.3v-1.9c0-.2,0-.3.1-.4,0,0,.2-.2.3-.2.3,0,.5.2.8.5s.5.7.7,1.1c.2.4.4.9.6,1.3.1.4.2.8.2,1v.2h-.2c0,0,.1.3.2.5,0,.2.1.4.1.5v1c0,0,0,.3.1.4,0,0,.1.3.2.4.1.2.2.3.3.4,0,0,.2,0,.3.2h.8c.3.4.6.8,1,1.2s.8.7,1.2,1c.7,0,1.3.2,1.9.3.6,0,1.3,0,1.9,0s1,0,1.4-.2c.4,0,.8-.3,1.1-.5s.7-.4,1-.6.6-.5,1-.8c.2-.2.5-.3.8-.5s.5-.3.8-.5.5-.4.7-.6c.2-.2.4-.5.6-.7,0-.2.2-.4.4-.5s.3-.4.3-.6v-.2c0-.5-.1-.9-.1-1.4v-1.4c0-.4-.1-.8-.3-1s-.4-.4-.6-.6c-.2,0-.5-.3-.8-.4-.3,0-.5-.3-.8-.6s-.6-.4-.9-.5c-.3,0-.7,0-1.1,0h-1.1c-.4,0-.7-.2-1-.4h-.2c-.1,0-.3,0-.4,0-.1,0-.3,0-.4,0h-.7c-.2,0-.4,0-.7-.2-.2,0-.4,0-.7-.2-.2,0-.4,0-.7,0h-1.2c-.2,0-.3,0-.5-.2-.2,0-.4-.2-.7-.4-.8-.5-1.6-.8-2.4-1.1-.2-.4-.4-.8-.6-1.2-.2,0-.3-.2-.5-.3-.2,0-.3-.2-.4-.3,0-.1-.2-.4-.3-.8s-.3-.7-.4-1.2c-.1-.4-.2-.8-.3-1.2,0-.4-.1-.6-.1-.8,0-.3,0-.6.1-1,0-.3.2-.6.5-.8h.2v-.3s0-.1-.2-.2c-.1,0-.2-.1-.2-.2h0c0-.3.2-.6.4-.9s.4-.6.7-.8.5-.5.8-.7.5-.4.8-.6c.2-.1.3-.3.5-.5.1-.2.3-.3.4-.4h1.2c.2,0,.3-.1.3-.2,0,0,.1-.2.2-.2,0,0,.1-.1.2-.2h7.1c.3,0,.5,0,.8.2.2,0,.5.1.8.1s.4,0,.6-.2.2-.2.3-.3c0-.1.1-.2.2-.3,0-.1.2-.2.5-.2s.6,0,.9.2c.3.2.6.3.9.4h0v.5c0,.2,0,.5.1.7,0,.2.2.5.3.7,0,.2.2.5.3.7,0,.2.1.5.1.7v.8c0,.3,0,.5.2.6.1.1.2.2.2.3s0,.2-.1.3c-.1,0-.1.2-.1.4v3.6c0,.3-.1.5-.2.7-.1.2-.3.3-.5.3s-.4,0-.6-.2c-.2-.2-.4-.3-.5-.5-.2-.2-.3-.4-.4-.7s-.2-.5-.2-.7c0-.3-.1-.5-.2-.8,0-.3-.2-.5-.3-.7-.2-.3-.5-.7-.7-1s-.4-.7-.6-1c-.2-.3-.3-.4-.4-.5-.1,0-.2-.2-.4-.2h-1c-.3,0-.5-.1-.8-.2-.3,0-.5-.2-.8-.2s-.5-.1-.8-.2-.5,0-.8,0-.8,0-1.3.2c-.4.1-.9.3-1.3.5-.4.2-.9.4-1.3.6-.4.2-.8.4-1.2.5-.4.8-.5,1.6-.5,2.5s0,1.2.2,1.6c.1.4.3.7.6,1s.5.5.9.7c.3.2.7.4,1,.7.4.2.7.4,1.1.5.4,0,.8,0,1.2,0h1.4c.3,0,.5,0,.8,0,.2,0,.5.2.7.2s.5.2.7.2.5,0,.8,0h1.4c.2,0,.4,0,.5,0,.2,0,.3.2.5.3s.3.2.5.3c.2,0,.4.2.6.2.3,0,.5.3.7.4.2,0,.4.2.5.4.2,0,.3.3.4.5.1.2.3.4.5.7s.4.5.6.7c.3.2.5.4.6.7,0,0,0,.2.1.4v.4c0,0,0,.2.1.3,0,0,.2,0,.3.2v1-1.3Z"/>
    <path class="st2" d="M235.5,48.1c0,.2-.1.4-.3.5s-.5.3-.8.3-.7.2-1.1.2-.8,0-1.2,0h-1.7c-.4,0-.7,0-1,0-.3,0-.6.2-.9.3-.3,0-.5.2-.7.3-.2,0-.5,0-.7,0s-.4,0-.5-.2c-.1,0-.3-.2-.5-.2s-.4,0-.6-.2-.4-.2-.5-.4-.3-.4-.4-.6c0-.2-.1-.4-.1-.6,0-.3,0-.5.2-.7.1-.2.3-.3.5-.5.2,0,.5-.2.7-.3s.5,0,.7,0h.6c.2,0,.4,0,.5.3,0-.2,0-.4.2-.6.1-.2.2-.3.3-.4.1,0,.2-.3.3-.4,0-.2.1-.4.1-.6v-5.5c0-.3,0-.5.1-.7,0-.2.1-.4.1-.5,0-.3,0-.6-.2-.9-.1-.3-.2-.6-.4-.8-.2-.3-.4-.5-.6-.6-.2-.2-.5-.3-.7-.3-.7,0-1.4-.2-2.2-.2h-2.1c-.2,0-.4,0-.6.2s-.4,0-.6.2h-2.6c-.3,0-.6,0-.9.3-.3,0-.6.3-.8.6v2.7c0,.3-.1.6-.3.9v.3c0,.2,0,.5.1.7,0,.2.1.4.1.7s0,.2-.1.3c0,0-.1.2-.1.4v.6c0,.2.1.4.2.6,0,.2.2.4.2.6s.1.4.2.6c0,.4.2.7.4.9.3.2.5.4.9.5.3,0,.7.2,1.1.3.4,0,.7.2,1,.4v.3c0,.2,0,.5.1.7,0,.2.1.4.1.7s0,.4-.3.6c-.2,0-.4.2-.7.3-.3,0-.5,0-.8,0h-1.7c-.8.2-1.6.3-2.5.3h-3.3c-.3,0-.7,0-1-.2-.3,0-.6-.3-.9-.5-.2-.2-.4-.5-.4-.8v-.5c0-.2.1-.4.2-.6,0-.2.2-.4.3-.5.1-.2.2-.3.4-.3.3,0,.7-.3,1.1-.3s.8-.2,1.1-.4c.4-.2.7-.5.9-.8.2-.4.4-.9.4-1.7v-3.4c0-.6,0-1.2-.1-1.8,0-.6-.1-1.2-.1-1.8v-1.6c0-.4,0-.7-.2-1.1-.1-.3-.2-.7-.2-1v-.2s.1-.2.2-.4c0-.2,0-.5.1-.7s0-.5,0-.7v-.5c0-.3,0-.7-.1-1,0-.3,0-.7-.1-1v-1.4c0-.1,0,0-.1,0h-.1v-.2c0-.1,0-.3.2-.4.1-.2.2-.4.2-.5s0-.3-.1-.6c0-.2-.2-.5-.3-.7s-.3-.5-.4-.7c-.2-.2-.3-.3-.4-.4-.3-.1-.6-.2-.9-.3s-.7-.1-1-.3c-.3-.1-.6-.3-.8-.5s-.3-.5-.3-1,.1-.7.3-1,.5-.5.8-.6c.3-.2.7-.3,1-.3s.7,0,1-.1h.7c.3,0,.5,0,.8.1.3,0,.5.1.8.2.3,0,.5.2.7.3.3-.1.7-.2,1.1-.3.4,0,.7-.1,1.1-.1h.7c.3,0,.5.1.7.3.2.1.4.3.5.5s.2.5.2.9v.4s-.1.1-.2.1c-.4,0-.8,0-1.2.3-.4.2-.8.4-1.1.7-.3.3-.6.6-.8,1s-.3.8-.3,1.2v.5c.1.4.2.9.3,1.3,0,.4.1.9.1,1.3v2.4c0,.5.1.9.4,1.2s.5.6.9.7.8.3,1.2.3h3.9c.4,0,.9,0,1.3.2.4,0,.8.2,1.3.2h.5c.2,0,.3,0,.4,0,0,0,.1,0,.2-.2,0,0,.2,0,.3-.2.1,0,.2,0,.3-.2h.2c.2,0,.4-.2.6-.4.1-.2.2-.5.3-.8,0-.3.1-.6.1-1v-.8c0-.2,0-.5-.1-.7,0-.2-.2-.4-.3-.6,0-.2-.2-.4-.2-.6s-.1-.4-.1-.7v-1.8c0-.6-.1-1.1-.3-1.4s-.5-.5-.8-.7c-.3-.1-.7-.2-1.1-.3-.4,0-.8-.1-1.1-.2-.3,0-.6-.2-.8-.4-.2-.2-.3-.5-.3-1s0-.5.2-.7c.1-.2.3-.3.5-.4.2,0,.4-.2.7-.2h3.5c.4,0,.9,0,1.4-.1.5,0,1-.1,1.6-.1h1c.4,0,.8.1,1.1.2.4.1.7.3.9.5s.4.5.4,1,0,.5-.2.7c-.1.2-.3.3-.5.4s-.5.2-.7.3-.5.2-.8.3c-.3,0-.5.2-.7.3-.2.1-.4.3-.5.5s-.2.4-.2.6v2.8c0,1.3,0,2.6-.1,3.9s-.1,2.6-.1,3.8v2.6c0,.4.1.8.2,1.2s.2.8.2,1.2v.5c0,0,0,.2-.1.3,0,0,0,.2-.1.2s0,.2,0,.2c0,.2,0,.5.2.7.1.2.2.5.2.7v2c0,.4,0,0,0,.3s.1.4.2.6c0,.2.1.4.2.6s.1.3.2.4c.2.2.4.3.6.4s.5.2.8.2.5,0,.8.2c.3,0,.5.2.7.3.1,0,.3.2.5.4s.3.3.3.6h-.2Z"/>
    <path class="st2" d="M260.3,20.9c0,.2,0,.3-.2.4-.1.1-.2.3-.4.4-.2.1-.3.2-.5.3-.2,0-.3.2-.4.3-.2.2-.5.3-.9.3h-1.6c-.2.1-.4.2-.5.2h-.6c-.1,0-.3,0-.5-.2-.2-.1-.3-.2-.3-.3l.2-.2c-.2,0-.3.1-.3.2,0,0,0,.2-.1.2v.3c0,.1,0,.2-.1.3,0,.1-.2.2-.3.3s-.3,0-.5.2c-.2.1-.3.3-.4.5-.1.3-.2.7-.2,1.3v1.6c0,.5,0,1-.1,1.5,0,.5-.1,1-.1,1.6s0,.6-.1.9c0,.3-.1.6-.1.9s.2.8.6.9c-.1,0-.2.2-.2.3,0,.2-.1.4-.1.6v2c.1,0,.2.3.2.4v1c0,.7,0,1.4.1,2.1,0,.7.1,1.4.1,2.1s0,.9-.2,1.4c0,.5-.1.9-.2,1.4,0,.4,0,.8.2,1s.3.4.6.6.5.2.8.3h1c.5,0,1.1,0,1.6,0,.5,0,1.1,0,1.6,0s.9.2,1.2.5c.3.3.4.8.4,1.3s0,.8-.2,1.1c-.1.3-.3.6-.5.9-.2.3-.5.4-.8.6-.3,0-.7.2-1.1.2s-.6,0-1,0c-.6,0-1.2-.2-1.7-.3h-8.4c-.2,0-.4,0-.6,0-.2,0-.4,0-.6,0h-.5c-.2,0-.4,0-.6.2-.2,0-.4,0-.7.2h-.7c-.5,0-1,0-1.4-.4-.4-.2-.6-.7-.6-1.2v-.5c0,0,0-.3.2-.5.1-.2.3-.5.4-.7.2-.2.3-.4.5-.6.2-.2.3-.2.5-.2h.3c.1,0,.2,0,.4.2.1,0,.3,0,.5.2h.7c.5,0,1.1,0,1.6,0,.6,0,1.1-.3,1.6-.5s.9-.6,1.2-1,.5-.9.5-1.5v-1.4c0-.8-.1-1.5-.1-2.3v-2.3c0-.5,0-1,.2-1.5s.2-1,.2-1.5,0-.6-.1-.8c0-.3-.1-.5-.1-.8v-2.6c0-.5,0-1,.2-1.5.1-.5.2-1,.2-1.5s0-.6-.1-.9-.1-.6-.2-.9c0-.3-.2-.6-.2-.9s-.1-.6-.1-.9v-.6c0-.2-.2-.4-.4-.5s-.3-.2-.5-.3-.4-.2-.5-.3c-.2-.1-.3-.2-.4-.4-.1,0-.2,0-.2.2v.6s-.1.1-.2.2c-.4,0-.8,0-1.2.1s-.8,0-1.2,0h-.9c-.3,0-.7,0-1-.2s-.6-.2-.8-.4c-.2-.2-.3-.4-.3-.8s0-.4.1-.6c0-.2.2-.4.4-.7.1-.2.3-.4.5-.6s.3-.4.4-.5c.1-.1.3-.2.5-.3.2,0,.4-.1.7-.1h6.3c.5,0,.9,0,1.3-.1.4,0,.5-.1.6-.2,0,0,.2.1.3.2s.3.2.4.3c.1,0,.3.2.4.2s.2.1.3.1h.2s0-.1.1-.2v-.5h.2c.3,0,.5,0,.6.3.1.2.2.4.2.7v.2h0c.1.1.2.1.3-.1,0-.1.1-.2.2-.3s0-.2.2-.3c0,0,.2-.1.3-.1h.5c.3.3.6.5.7.6.2.1.3.3.4.3s.2.1.2.1h.3v-.2l-.2-.2c-.1-.1-.2-.1-.2-.2v-.2h.4c.1,0,.2-.1.3-.2l.2-.2h.7s.2.1.3.2l.2.2h.6c.1,0,.2,0,.2.1v.2c0,.2,0,.4.1.5,0,.1,0,.2.1.3,0,0,0,.2.2.3,0,0,.2.2.3.4,0,.1.1.2.1.4h-.9ZM249.5,22.2v-.4c-.1-.1-.3-.2-.4-.2-.2,0-.3,0-.3.2v.4c0,.1,0,.2.1.2,0,0,0,.1.2.2h.5s.1-.1.1-.2v-.3h-.2Z"/>
    <path class="st2" d="M290,28.3s0,.2-.1.3c0,.2-.2.4-.3.6s-.2.4-.3.6c-.1.2-.2.3-.2.3h-.5c-.3,0-.6-.1-.9-.2s-.5-.3-.7-.6c0,0,0-.2-.1-.3s-.1-.3-.2-.5c0-.2-.1-.3-.1-.5v-1.1c0-.4,0-.9-.1-1.3,0-.4-.1-.9-.1-1.3s0-.6.1-.8.2-.5.4-.8h-.1c-.2,0-.3,0-.4-.2,0-.1-.3-.2-.5-.2-.5,0-1.1,0-1.6.2-.5.1-1.1.2-1.6.2h-1.4c-.4,0-.9,0-1.3.1-.4,0-.9.1-1.3.1h.2c.2-.2.2-.1.2-.2h-.3c-.1,0-.2,0-.3.2,0,.1-.2.2-.4.2h-2c-.3,0-.5,0-.8-.1-.3,0-.5-.1-.7-.2s-.3-.3-.4-.5c-.2,0-.3.1-.3.2s0,.2-.1.3c0,.1,0,.2-.2.3,0,0-.2.1-.4.2-.4,0-.7.1-.8.4-.1.2-.2.5-.2.8v6.6c0,.4.1.8.2,1.1.1.3.2.5.4.5h.8c.5,0,1,0,1.5-.2.5,0,1-.2,1.5-.2h1.2c.3,0,.5,0,.6-.4.2-.3.3-.6.3-.9s.1-.7.1-1.1v-3h.1c.4,0,.7,0,1,.2.3.1.6.2,1,.2h.3c0,.3,0,.6.1.9,0,.3.1.6.1.9s-.2.6-.6.7c.1.2.2.4.3.6,0,.2.1.4,0,.6v1c0,0,0,.3.1.3s.1.2.1.3c0,.2,0,.4-.2.6s-.2.5-.2.8v1c0,.3.1.7.2,1.1,0,.4.1.8.2,1.1v1.9c0,.2,0,.5-.2.7,0,.2-.2.4-.3.6-.1.2-.3.3-.5.5-.3,0-.5,0-.7-.3-.2,0-.3-.3-.5-.5s-.2-.4-.3-.7c0-.2-.1-.5-.1-.7v-1c0-.3,0-.6-.2-.8-.1-.2-.4-.4-.8-.5s-1-.2-1.8-.2h-1c-.4,0-.8,0-1.3.2-.4,0-.8.3-1.1.4-.3.2-.5.4-.5.8v4.3c0,.4,0,.8-.2,1.2-.1.4-.2.8-.2,1.2s0,.8.3,1.1c.2.3.5.5.8.6s.7.2,1.1.3.8,0,1.1,0c.7,0,1.4,0,2.1,0,.7,0,1.4,0,2.1,0h3.7c.4,0,.8,0,1.2-.2.4,0,.7-.3,1-.5s.4-.5.5-1c0,0,0-.2.1-.2,0,0,.1,0,.2,0,0,0,.1,0,.2,0v-.2c0,0,0-.2-.1-.4,0-.2-.1-.3-.2-.4v-1.6c0-.4,0-.8.2-1.1s.2-.7.2-1.1v-.6s0-.2.2-.3c.1,0,.3-.2.5-.2s.3,0,.5-.2h.4c.4,0,.7,0,.9.4.2.3.4.6.5.9.1.4.2.7.2,1.1v1c0,.4,0,1-.1,1.5s-.2,1.1-.3,1.7c-.1.6-.3,1.2-.4,1.7s-.3,1-.5,1.5c0,.2-.2.4-.3.5,0,0-.2.2-.3.2,0,0-.2,0-.3.2-.1,0-.2.2-.4.3-.1,0-.3.2-.7.2h-2.4c-.5,0-.9,0-1.2.2s-.6.2-.8.2-.3,0-.4,0-.1,0-.3,0-.2,0-.3,0c0,0-.2,0-.4,0h-7.5c-.7,0-1.5,0-2.2.2-.7,0-1.5.2-2.2.2h-.9c-.3,0-.6,0-.9-.3-.3,0-.5-.3-.7-.5s-.3-.5-.3-.8.1-.6.4-.9c.2-.3.5-.5.8-.8.3-.2.7-.5,1-.7s.6-.4.9-.6v-1.2c0-.2,0-.4.1-.6,0,0,.1-.3.2-.5s.2-.3.2-.5v-.6c-.2-.4-.3-.7-.3-1v-2.4c0-.2,0-.4.1-.6,0-.2.1-.4.2-.7,0,0-.1-.3-.2-.5,0-.2-.1-.4-.1-.5l.3-3.1v-1c0-.3,0-.7-.2-1-.1-.3-.2-.7-.2-1v-.4c0-.2.1-.3.2-.5,0-.2.1-.4.2-.6v-.7c0-.2,0-.4-.1-.5s-.1-.3-.1-.5,0-.3.1-.5.1-.4.1-.6c0-.3,0-.6-.2-.8-.1-.3-.2-.5-.3-.8-.2-.4-.3-.7-.4-.9s-.2-.4-.3-.5c-.1-.1-.3-.2-.5-.3-.2,0-.5-.1-1-.2-.2,0-.4,0-.6-.2-.2-.1-.3-.3-.5-.4-.1-.2-.2-.4-.3-.6,0-.2-.1-.4-.1-.6,0-.3.1-.5.4-.7.2-.2.5-.3.9-.4s.8-.2,1.2-.2.9-.1,1.3-.1h7c.6,0,1.2,0,1.8-.1.6-.1,1.2-.2,1.8-.1.5,0,1.1,0,1.6.2s1.1.2,1.6.2,1,0,1.5-.2c.5-.1,1-.2,1.5-.2h.6c.3.4.6.6.9.9s.5.5.7.7.3.5.5.8c.1.3.2.7.2,1.3v1.5c0,.3,0,.5.1.7,0,.2.2.3.3.4,0,.2-.1.3-.3.3,0,.2,0,.4.1.6,0,.2.1.4.2.6,0,.2.1.4.2.6s0,.4,0,.6l1,.4ZM271.2,33.4h-.2s-.1,0-.2.2c.5.3,1,.6,1.3.9.3.3.6.5.7.7.2.2.3.3.4.3s.2,0,.3-.3c.1-.3.1-.5,0-.7s-.4-.4-.6-.6c-.3-.2-.6-.3-.9-.4-.3,0-.6,0-.8-.2h0Z"/>
    <path class="st2" d="M320.3,44.5c0,.2,0,.4-.1.5,0,.2-.1.3-.1.5v1.4c0,.3-.1.5-.2.8,0,.3-.1.5-.2.8s-.1.4-.2.5h-.6c0,.3-.2.6-.3.9-.6.2-1,.4-1.4.5h-3.9c-.4,0-.8.2-1.2.4h-.4c-.3,0-.5,0-.8,0-.3,0-.5,0-.8-.2-.3,0-.5,0-.8-.2s-.5,0-.8,0c-.4,0-.8,0-1.2,0-.4,0-.8,0-1.2,0h-.8c-.3,0-.6,0-.8.2-.3,0-.6,0-.8.2s-.6,0-.8,0c-.3,0-.5,0-.8,0-.2,0-.5,0-.8,0h-2.8c-.6,0-1.1-.2-1.5-.5s-.6-.8-.6-1.4,0-.5.2-.7c.3-.6.7-1,1.1-1.3s.7-.4,1-.6.6-.2.9-.2.5,0,.8-.3c.2,0,.4-.4.5-.7s.2-.9.2-1.6,0-1.7-.2-2.5c-.1-.8-.2-1.7-.2-2.5s0-.8.2-1.2c0-.4.1-.8.2-1.2v-4.2c0-.5,0-1-.2-1.4-.1-.5-.2-1-.2-1.4s0-.6.1-.8c0-.3,0-.5.1-.8v-3.3c0-.2-.1-.4-.2-.6s-.3-.3-.4-.4-.4-.2-.7-.2-.5,0-.8.1-.5.1-.8.1h-.5c-.1,0-.3,0-.4-.1,0-.1-.1-.2-.2-.4s0-.3-.2-.4c0-.1-.1-.2-.2-.3,0,0-.2-.2-.4-.2.1-.2.3-.5.4-.8s.3-.7.5-1,.4-.6.6-.8.5-.3.9-.3.5,0,.8.2.5.2.8.2.7,0,1-.2c.3-.1.7-.2,1-.2s.5.1.8.3h1.5c.4,0,.9,0,1.3-.2.4-.1.8-.2,1.3-.2s.7,0,1,.2c.3.1.6.2.9.4s.6.3.9.4c.3.2.6.3.9.3v.4h0v.2c0,.3,0,.5-.2.8,0,.3-.2.5-.2.8s-.2.6-.4.7c-.2,0-.4.1-.7.1h-2.4c-.5,0-1,.2-1.6.3-.2.3-.2.6-.2.9v.8c0,.3,0,.5.1.8-.2,0-.3,0-.4-.1h-.4c-.1,0-.2,0-.3.2,0,.1-.1.2-.1.4s0,.2.1.3c0,0,.2.1.3.2h.6v.4c0,.5,0,1.1-.2,1.6s-.2,1-.2,1.6v1c0,.2,0,.3-.2.3h-.6c-.1,0-.2,0-.2.2h0v.4c0,.1,0,.2.1.2h.6s.1,0,.1.2v.8c0,.4,0,.8.2,1.1.2.4.2.7.2,1.1s0,.7-.2,1c-.1.3-.2.7-.2,1v.6c0,.2.1.4.2.6,0,.2.1.4.2.6v.6c0,.3,0,.6-.2.9-.1.3-.2.6-.2.9v.3c0,.3,0,.7.1,1.2,0,.5.1.9.2,1.3.1.4.3.8.6,1.1.3.3.6.4,1.1.5.4,0,.9,0,1.3-.2.4,0,.9-.2,1.3-.2s.5,0,.8,0c.3,0,.5.2.8.2s.5.2.8.2.5,0,.8,0,.9,0,1.3,0c.4,0,.9-.2,1.3-.2.6,0,1.1-.3,1.4-.6s.5-.8.5-1.4,0-1.3-.2-1.9c-.1-.6-.2-1.2-.2-1.9s0-.8.2-1.1.3-.7.6-1c.3,0,.7-.2,1-.2.6,0,1.1.2,1.3.6s.4.9.4,1.5,0,.4-.2.5c-.1,0-.2.2-.2.3h0c0,.2.1.2.2.3,0,0,.1.2.2.3s0,.2,0,.3,0,.2-.1.2v2.4h.2l.5.5Z"/>
    <path class="st2" d="M349.5,37.4c0,.4,0,.9-.2,1.5-.1.6-.2,1.2-.4,1.8-.2.6-.4,1.3-.6,1.9s-.4,1.3-.7,1.9c-.2.6-.5,1.2-.7,1.7s-.5,1-.7,1.3c0,0-.2.3-.4.4-.2,0-.4.3-.6.5s-.4.3-.5.5-.2.3-.2.4h-.5c-.2,0-.5,0-.8.2-.3,0-.5.2-.7.2s-.4.2-.4.3c-.2.3-.3.5-.3.6s0,.2-.1.2h-.9c-.1,0-.3,0-.5,0s-.4,0-.6.2c-.2,0-.4,0-.6,0h-.5c-.3,0-.6,0-.9-.2-.3,0-.6-.2-.9-.2h-.5c-.5.2-1.1.3-1.5.4h-1.6l-3-.5h-2.3c-.3,0-.6,0-.9,0,0-.2,0-.4-.2-.6s-.2-.4-.3-.6c0-.2-.2-.4-.2-.6v-.6c0-.4.1-.6.3-.8.2-.2.4-.3.7-.3s.6,0,.9,0c.3,0,.6,0,.9-.2.3,0,.5-.3.7-.6s.3-.7.3-1.2v-1c0-.3,0-.7-.1-1,0-.3-.1-.7-.1-1v-5c0-.5,0-1,.1-1.5,0-.5.1-1,.1-1.5v-1.4c0-.4-.1-1,0-1.5v-2.5c0-.3,0-.6-.1-.9,0-.4-.1-.7-.1-1.1s0-.7-.1-.9c0-.3-.2-.5-.4-.7-.2-.2-.5-.4-1-.5-.2,0-.3,0-.4-.2s-.2-.1-.2-.2-.2-.1-.3-.2c-.1,0-.3-.1-.5-.1-.6-.1-.9-.5-.9-1.1s0-.7.2-.9c.1-.3.3-.5.5-.7s.4-.4.7-.6c.3-.2.5-.3.8-.5.4-.3.7-.4,1.1-.5h5.1c.2,0,.5,0,.7.2.1,0,.3,0,.4.2s.2,0,.4,0,.4,0,.5-.2c.1-.1.3-.2.4-.2h0s0,.1.2.1c0,0,.1,0,.2-.1,0,0,.1-.1.3-.2,0,0,.2,0,.2.1,0,0,.1.1.2.1,0,0,.1,0,.2.1h2.1c.4,0,.7,0,1.1.2.3.1.6.3.9.5s.6.4.8.7c.3.3.5.5.8.7.2.2.4.3.6.4s.4.2.6.3c.2,0,.4.2.5.4.2.1.3.4.4.6.1.3.3.6.5.9s.4.6.6.8c.2.3.4.6.5.8.2.3.3.6.5.9.3.8.6,1.7.7,2.6s.3,1.8.4,2.7c0,.4.1.8.2,1.1,0,.4.1.8,0,1.1,0,.2,0,.4-.1.6,0,.2-.1.4-.1.6v.3c0,0,0,.2.1.3,0,0,.1.2.1.4v.9ZM345.9,35.9c0-.6,0-1.1-.2-1.7-.1-.5-.4-1-.7-1.5.2-.2.3-.3.3-.6v-1.8c0-.1,0-.2-.1-.3,0,0-.2-.2-.3-.3s-.2-.2-.3-.2c0,0-.2-.2-.2-.3s0-.3-.1-.4,0-.2,0-.3v-.3c0,0-.1-.3-.2-.4,0-.1-.1-.2-.2-.3v-.9c0-.1-.1-.2-.3-.3-.1,0-.3-.1-.4-.2-.2,0-.4-.1-.6-.1s-.4,0-.7-.2-.5-.3-.7-.5c-.3-.2-.5-.3-.8-.5-.3-.1-.5-.2-.8-.2h-1.2c-.4,0-.8.1-1.2.2h-2.1c-.3,0-.6.2-.8.4-.2.2-.3.5-.4.9v3.1c0,1.1-.1,2.3-.2,3.4-.1,1.1-.2,2.3-.2,3.4v3.2c0,.7,0,1.4-.2,2.1-.1.7-.2,1.4-.2,2.1v1.9c0,.3.1.6.3.8.2.2.4.4.7.6.4.2.9.3,1.3.5s.9.3,1.4.3.6,0,.8-.2c.3,0,.6-.2.9-.3.2,0,.4,0,.6,0s.5,0,.7-.2.5,0,.7-.2.4-.2.5-.4c.2-.2.4-.4.6-.6.2-.2.5-.3.9-.4.2,0,.3,0,.3-.2,0,0,0-.2.1-.3,0,0,0-.3.1-.4,0,0,.1-.3.3-.3.2-.2.4-.4.5-.6.1-.2.2-.5.3-.7,0-.3.1-.5.2-.8,0-.3.1-.5.2-.8.2-.6.4-1.2.6-1.7.2-.6.3-1.2.4-1.8v-.4c0-.1-.1-.3,0-.4v-.2h.1v-.2c.1,0,.1-.2.1-.4h.2Z"/>
    <path class="st2" d="M378,41.6c0,.7-.1,1.5-.2,2.2s-.2,1.4-.3,2.2c0,0-.2-.2-.3-.3s-.2,0-.4,0-.3,0-.5,0c-.1,0-.2.2-.2.4s0,.3.2.4c.2,0,.3,0,.5,0h.3c0,.2,0,.3-.2.5-.1.2-.2.3-.4.5s-.3.3-.5.5c-.2,0-.3.3-.4.4,0,0-.2.2-.3.4-.1.2-.2.3-.4.5-.1,0-.3.3-.4.4-.1,0-.3.2-.4,0-.1,0-.3,0-.3,0,0,0-.2,0-.3,0-.2,0-.3,0-.3.2v.8s-.2.2-.5.3-.7.2-1.1.3-.9.2-1.3.4-.8.2-1.2.4c-.6.2-1.2.4-1.8.5-.6,0-1.2.2-1.9.2s-.9,0-1.4-.2c-.4,0-.9-.3-1.3-.5s-.9-.3-1.3-.5c-.4,0-.9-.2-1.4-.2h-.7c-.3,0-.5,0-.7.2,0,0-.2.2-.2.3s-.2.2-.3.2h-.3c-.1,0-.2,0-.3,0-.3-.2-.6-.4-.8-.7-.2-.3-.4-.6-.5-.9s-.2-.7-.3-1.1,0-.7,0-1.1,0-.5.1-.7,0-.5.1-.7v-2c0-.2,0-.5.1-.7,0-.2.1-.5.1-.7s0-.4-.1-.5c0-.2-.1-.3-.1-.5s0-.2.2-.3.1-.2.2-.3v-1.9c0-.2,0-.3.2-.4,0,0,.2-.2.3-.2.3,0,.5.2.8.5s.5.7.7,1.2c.2.4.4.9.5,1.3.1.4.2.8.2,1v.2h-.2c0,0,.1.3.2.5v1.9c0,0,.1.3.2.4.1.2.2.3.3.4,0,0,.2.2.3.2h.8c.3.4.6.8.9,1.2s.7.7,1.1,1c.6.2,1.3.3,1.9.4.6,0,1.3.2,1.9.2s1,0,1.4,0,.8-.2,1.1-.4c.3-.2.7-.4,1-.6.3-.2.7-.5,1-.7s.5-.3.8-.5c.3,0,.6-.3.8-.5.3-.2.5-.3.8-.5.2-.2.4-.4.6-.7.1-.2.3-.3.5-.5s.3-.4.3-.6v-3c0-.4,0-.8-.2-1s-.3-.4-.6-.6-.5-.3-.8-.5-.5-.4-.8-.6c-.3-.3-.6-.5-.9-.6-.3,0-.7,0-1-.2-.4,0-.7,0-1.1,0-.4,0-.7-.2-1-.4h-.2c-.1,0-.3,0-.4,0-.1,0-.3,0-.4,0-.2,0-.4,0-.7,0-.2,0-.4,0-.7-.2-.2,0-.4-.2-.6-.2s-.4,0-.6-.2c-.3,0-.5,0-.7,0h-.5c-.2,0-.3,0-.5-.2-.2,0-.4-.2-.6-.4-.7-.5-1.5-.9-2.4-1.2-.1-.4-.3-.8-.6-1.3-.2,0-.3-.2-.5-.3-.1,0-.3-.2-.4-.3,0,0-.2-.4-.3-.8-.1-.4-.2-.8-.4-1.2-.1-.4-.2-.8-.3-1.2,0-.4-.1-.6-.1-.8,0-.3,0-.6.1-.9,0-.3.3-.6.5-.8h.2c0-.1.1-.2.1-.3s0-.1-.2-.2c-.1,0-.2-.1-.2-.2h0c.1-.3.3-.6.5-.9s.5-.5.7-.8c.3-.2.5-.5.8-.7s.6-.4.8-.6c.2-.1.4-.3.5-.5s.3-.3.5-.4h1.2c.2,0,.3-.1.3-.2,0,0,.1-.2.2-.2l.2-.2h5.9c.4,0,.8,0,1.2.1.3,0,.5.1.8.2s.5.1.8.1.4,0,.6-.1c.1,0,.2-.2.3-.3,0-.1.1-.2.2-.3,0,0,.2-.1.5-.1s.6.1.9.3c.3.2.6.3.9.4h0v1.2c0,.2.1.5.2.7,0,.2.2.5.2.7s.1.5,0,.7v.8c0,.3,0,.5.2.6.1.1.2.2.2.3s0,.2-.2.3c-.1,0-.2.2-.2.4v2.8c0,.3,0,.5-.1.8-.1.3-.1.5-.3.7-.1.2-.3.3-.5.3s-.4,0-.6-.3c-.2-.2-.4-.3-.5-.5-.2-.2-.3-.4-.4-.7,0-.2-.1-.5-.2-.8,0-.3-.1-.5-.2-.8,0-.3-.2-.5-.3-.7-.2-.3-.4-.7-.6-1s-.4-.7-.6-1c-.1-.3-.3-.5-.4-.6s-.2-.2-.4-.2h-1c-.3,0-.5-.1-.8-.2-.2,0-.5-.2-.7-.3-.2,0-.5-.2-.8-.2s-.5-.1-.8-.1-.8,0-1.3.1c-.4.1-.9.3-1.3.4-.4.2-.9.4-1.3.6s-.8.4-1.2.5c-.4.8-.6,1.6-.6,2.4s0,1.2.2,1.6c.1.4.3.8.6,1,.2.3.5.5.8.8.3.2.7.5,1,.7.4.3.7.4,1.1.5.4,0,.8,0,1.2.2h1.4c.3,0,.5,0,.8,0,.2,0,.5.2.7.3s.5.2.7.3c.2,0,.5,0,.8,0h1.4c.2,0,.4,0,.5.2.2,0,.3.2.5.3s.3.2.5.4.3.2.5.2c.3.2.5.3.7.4.2,0,.3.3.5.4s.3.3.4.5.3.4.4.7.3.5.6.7c.3.2.5.5.6.8v.8c0,0,0,.2.1.3,0,0,.2.2.3.2v1l.3-.5Z"/>
    <path class="st2" d="M407.4,51.4v1.8h-.2c0,0,0,.2-.1.3-.2,0-.4,0-.6.2h-1.5c-.1,0-.3,0-.5.2h-5.2c-.2,0-.4,0-.6-.2-.1,0-.2-.3-.2-.6v-.3c.1-.2.3-.4.4-.5.1,0,.3-.2.4-.2h.7s.2,0,.2-.3,0-.3.1-.6v-7.9s0,0-.2-.2h-1.3v-.3h0q0,0-.1,0s.1-.2.2-.3c0,0,.1-.3.2-.4,0,0,.2-.2.2-.3s.2,0,.3,0h1.4c.1,0,.2,0,.3,0h2.1c.1,0,.2,0,.4.2.1,0,.2,0,.3.2s.2,0,.4,0h0v.6c0,0,0,.2-.2.2h-1.1c-.2,0-.4,0-.6,0,0,0,0,.2-.1.3v.6h-.5v.2c0,0,0,0,0,0h.2v1.8h0q0,0-.1,0h-.1q0,0,.1,0h.1c.1,0,0,0,0,0v3.4h0v1.1c0,.2.1.3.2.4,0,0,.2.2.4.2h1.3c0,0,.2,0,.3,0s.2,0,.3,0,.2,0,.3,0h1c.2,0,.4,0,.5-.2.1,0,.2-.3.2-.5v-1.8c0,0,.1-.3.2-.4h.4c.2,0,.4,0,.5.3,0,.2.1.4.1.6v.2h0v.2h0v1.1h0l-.5.4Z"/>
    <path class="st2" d="M418.7,51.9v1.8h-.2c0,0,0,.2-.1.3-.2,0-.4,0-.6.2h-1.5c-.1,0-.3,0-.5,0h-5.2c-.2,0-.4,0-.6-.2-.1,0-.2-.3-.2-.6v-.3c.1-.2.3-.4.4-.5s.3-.2.4-.2h.7c0,0,.2,0,.2-.3s0-.3.1-.6v-7.9s0,0-.2-.2h-1.3v-.3h0q0,0-.1,0s.1-.2.2-.3c0,0,.1-.3.2-.4,0,0,.2-.2.2-.3,0,0,.2,0,.3,0h1.4c.1,0,.2,0,.3,0h2.1c.1,0,.2,0,.4.2s.2,0,.3.2c.1,0,.2,0,.4,0h0v.6c0,0,0,.2-.2.2h-1.1c-.2,0-.4,0-.6,0,0,0,0,.2-.1.3v.6h-.5v.2h.2v.2c0,.2,0,.4-.1.6,0,.2,0,.4-.1.6v.4h0q0,0-.1,0h-.1q0,0,.1,0h.1v3.4h0v1.1c0,.2.1.3.2.4,0,0,.2.2.4.2h1.3c.1,0,.2,0,.3,0,0,0,.2,0,.3,0h1.3c.2,0,.4,0,.5-.2.1,0,.2-.3.2-.5v-1.8c0,0,.1-.3.2-.4h.4c.2,0,.4,0,.5.3s.1.4.1.6v.2h0v.2h0v1.1h0l-.3.5Z"/>
    <path class="st2" d="M429.2,50.3v.6s0,.2-.1.3v.5h-.3s0,.2-.1.2v.7h0v.2h-.1c0,0-.2.2-.3.3,0,0-.2,0-.2.2,0,0,0,0-.1.2h0v.2h-.2c-.1,0-.3,0-.4,0-.1,0-.2,0-.4,0-.1,0-.3,0-.4.2-.1,0-.3,0-.4.2-.1,0-.3,0-.4,0h-.9c-.1,0-.3,0-.4-.2-.1,0-.2,0-.3,0s-.1-.2-.1-.3v-.2h-.3c-.2-.2-.5-.4-.7-.6s-.4-.5-.5-.8v-.8s-.1,0-.2,0h-.1v-3.3c0-.2,0-.3.1-.5v-2c0,0,0-.3.1-.4,0-.2.1-.3.2-.4,0,0,.2-.3.3-.4,0,0,.2-.3.3-.4s.1-.3.2-.5c0,0,.1-.2.2-.3.1,0,.3-.2.5-.2s.4,0,.6-.2c.2,0,.4,0,.6,0h1c.3,0,.5,0,.8,0,.2,0,.5.2.7.3.1,0,.2,0,.4,0h.7s.1,0,.1,0v-.2h.1q0,0,.2,0h.5q0,.2.1.3v.2h0v4.1h0q0,0-.1,0h-.5c-.1,0,0,0,0,0h.2s-.1-.2-.2-.3-.1-.2-.2-.3c0,0-.1-.2-.2-.3,0,0-.1-.2-.2-.3,0,0-.1-.2-.2-.3s0-.2-.1-.3c0,0,0-.2-.1-.3s0-.2-.2-.2c-.2-.2-.5-.4-.8-.6s-.6-.3-1-.3h-.7c-.2,0-.4,0-.6.2,0,0-.2,0-.2,0s-.1,0-.2,0c0,0-.1,0-.2,0s0,0-.1.2v.6h-.1q0,0-.1.2c0,0,0,.3-.1.4v3.7c0,.2,0,.5.1.7,0,.2.1.4.2.5,0,.2.1.3.2.5,0,0,0,.2.1.3,0,0,.1.2.2.3,0,0,.2.2.3.2s.2,0,.3,0h1.5c.2,0,.3,0,.4-.2,0,0,.2,0,.3-.2h.6s.2,0,.3-.2c0,0,0-.2.2-.3,0,0,.1-.3.2-.4s.1-.3.2-.4.1-.2.2-.2v-.2c.1,0,.1-.2.1-.4v-1.2h.8s.2,0,.2,0c0,0,.1.2.2.3,0,0,0,.2.1.3s0,0,0,0h0v.3l-1.6.6Z"/>
  </g>
  <g class="st1">
    <text class="st0" transform="translate(22.4 75.2)"><tspan x="0" y="0">AI · SOVEREIGNTY · GOVERNANCE</tspan></text>
  </g>
</svg>